<svg xmlns="http://www.w3.org/2000/svg" width="26" height="26.324" viewBox="0 0 26 26.324"><defs><style>.a,.c,.d{fill:none;stroke-linejoin:round;}.a,.b,.c,.d{stroke:#72acff;stroke-width:2px;}.a,.b,.d{stroke-linecap:round;}.b{fill:#fff;}.c{stroke-linecap:square;}.c,.d{fill-rule:evenodd;}</style></defs><g transform="translate(1 1)"><rect class="a" width="24" height="19" transform="translate(0 5.324)"/><path class="b" d="M0,0H23.7V5.613H0Z" transform="translate(0.3 1.247)"/><path class="c" d="M9,1.871V0" transform="translate(-3.087)"/><path class="c" d="M30,1.871V0" transform="translate(-10.99)"/><path class="d" d="M7,15l1.59,1.59" transform="translate(-2.334 -5.645)"/><path class="d" d="M7,23l1.59,1.59" transform="translate(-2.334 -8.655)"/><path class="d" d="M18,23l1.59,1.59" transform="translate(-6.474 -8.655)"/><path class="d" d="M28,23l1.59,1.59" transform="translate(-10.237 -8.655)"/><path class="d" d="M28,31l1.59,1.59" transform="translate(-10.237 -11.666)"/><path class="d" d="M18,31l1.59,1.59" transform="translate(-6.474 -11.666)"/><path class="d" d="M7,31l1.59,1.59" transform="translate(-2.334 -11.666)"/><path class="d" d="M17,15l1.59,1.59" transform="translate(-6.097 -5.645)"/><path class="d" d="M28,15l1.59,1.59" transform="translate(-10.237 -5.645)"/></g></svg>