<svg xmlns="http://www.w3.org/2000/svg" width="12.449" height="8.487" viewBox="0 0 12.449 8.487">
  <path id="delivery-truck" d="M10.178,624.716a1.15,1.15,0,0,0-.811.335,1.126,1.126,0,0,0,0,1.612,1.154,1.154,0,0,0,.811.335,1.141,1.141,0,0,0,0-2.281Zm0,1.774a.634.634,0,1,1,0-1.268.634.634,0,0,1,0,1.268Zm.294-5.574a.246.246,0,0,0-.17-.066H9a.254.254,0,0,0-.253.253v2.079a.254.254,0,0,0,.253.253h2.063a.254.254,0,0,0,.253-.253V621.79a.254.254,0,0,0-.084-.188Zm.34,2.013H9.255v-1.574H10.2l.608.548Zm-6.824,1.787a1.15,1.15,0,0,0-.811.335,1.126,1.126,0,0,0,0,1.612,1.154,1.154,0,0,0,.811.335,1.141,1.141,0,0,0,0-2.281Zm0,1.774a.634.634,0,1,1,0-1.268.634.634,0,0,1,0,1.268ZM2.3,625.027h-.51v-.674a.253.253,0,0,0-.507,0v.928a.254.254,0,0,0,.253.253H2.3a.253.253,0,1,0,0-.507Zm1.285-1.382a.254.254,0,0,0-.253-.253H.253a.253.253,0,1,0,0,.507H3.328A.253.253,0,0,0,3.582,623.646Zm-2.814-.915,3.075.018A.256.256,0,0,0,4.1,622.5a.251.251,0,0,0-.251-.256l-3.075-.018h0a.254.254,0,0,0,0,.507Zm.517-1.151H4.36a.254.254,0,0,0,0-.507H1.285a.254.254,0,0,0,0,.507Zm11.07-.342h0l-1.815-1.5a.25.25,0,0,0-.162-.058H8.244v-.913a.254.254,0,0,0-.253-.253H1.534a.254.254,0,0,0-.253.253v1.856a.253.253,0,0,0,.507,0v-1.6H7.739v6.01H5.661a.253.253,0,1,0,0,.507h3.1a.253.253,0,1,0,0-.507h-.51v-4.844h2.043l1.653,1.369-.018,3.47h-.264a.254.254,0,0,0,0,.507h.515a.252.252,0,0,0,.253-.251l.02-3.843A.268.268,0,0,0,12.355,621.238Z" transform="translate(0 -618.51)"/>
</svg>
