<svg xmlns="http://www.w3.org/2000/svg" width="18.815" height="19" viewBox="0 0 18.815 19">
  <g id="Group_1968" data-name="Group 1968" transform="translate(-41.387 -495.5)">
    <path id="Path_1731" data-name="Path 1731" d="M5.035,12.7Q5,12.357,5,12t.035-.7L3.206,9.232l2-3.464,2.7.553a6.992,6.992,0,0,1,1.222-.707L10,3h4l.871,2.614a6.992,6.992,0,0,1,1.222.707l2.7-.553,2,3.464L18.965,11.3q.035.348.035.7t-.035.7l1.829,2.063-2,3.464-2.7-.553a6.991,6.991,0,0,1-1.222.707L14,21H10l-.871-2.614a6.991,6.991,0,0,1-1.222-.707l-2.7.553-2-3.464Z" transform="translate(38.794 493)" fill="none" stroke="#1d1d1f" stroke-linecap="square" stroke-width="1"/>
    <circle id="Ellipse_268" data-name="Ellipse 268" cx="1" cy="1" r="1" transform="translate(49.794 504)" fill="none" stroke="#1d1d1f" stroke-linecap="square" stroke-width="1"/>
  </g>
</svg>
