<svg xmlns="http://www.w3.org/2000/svg" width="41.631" height="41.301" viewBox="0 0 41.631 41.301">
  <g id="bank-sign" transform="translate(0 0)">
    <g id="Group_2083" data-name="Group 2083" transform="translate(0 0)">
      <path id="Path_1829" data-name="Path 1829" d="M4.964,15.41,20.816,3.886,36.668,15.41h4.964L20.816.278,0,15.41Z" transform="translate(0 -0.278)" fill="#536e86"/>
      <g id="Group_2081" data-name="Group 2081" transform="translate(0.809 33.179)">
        <rect id="Rectangle_1587" data-name="Rectangle 1587" width="31.121" height="3.168" transform="translate(4.446)" fill="#536e86"/>
        <rect id="Rectangle_1588" data-name="Rectangle 1588" width="40.015" height="3.168" transform="translate(0 4.954)" fill="#536e86"/>
      </g>
      <g id="Group_2082" data-name="Group 2082" transform="translate(9.946 10.387)">
        <path id="Path_1830" data-name="Path 1830" d="M37.492,37.458a5.691,5.691,0,0,0-1.683-.678v4.972a2.464,2.464,0,0,0,2.23-1.18,2.656,2.656,0,0,0,.321-1.314A2.068,2.068,0,0,0,37.492,37.458Z" transform="translate(-24.481 -25.481)" fill="#536e86"/>
        <path id="Path_1831" data-name="Path 1831" d="M30.941,26.778a2.442,2.442,0,0,0-.529,1.483,1.821,1.821,0,0,0,.623,1.466,3.594,3.594,0,0,0,1.684.737V26.019A2.188,2.188,0,0,0,30.941,26.778Z" transform="translate(-22.29 -21.113)" fill="#536e86"/>
        <path id="Path_1832" data-name="Path 1832" d="M27.611,17.762A10.87,10.87,0,1,0,38.481,28.63,10.87,10.87,0,0,0,27.611,17.762ZM30.689,34.65a6.175,6.175,0,0,1-2.618.772v1.835h-.9V35.422a4.221,4.221,0,0,1-3.736-1.946,5.259,5.259,0,0,1-.539-2.583h1.672a4.623,4.623,0,0,0,.411,1.894,2.529,2.529,0,0,0,2.191,1.2V28.833a6.081,6.081,0,0,1-3.032-1.3,3.263,3.263,0,0,1-.978-2.514,3.732,3.732,0,0,1,1.055-2.587,3.846,3.846,0,0,1,2.956-1.177V20h.9v1.24a4.432,4.432,0,0,1,2.889,1.109,3.585,3.585,0,0,1,1.054,2.577H30.359a2.818,2.818,0,0,0-.386-1.239,2.177,2.177,0,0,0-1.9-1v4.6a11.18,11.18,0,0,1,2.979,1.154,3,3,0,0,1,1.274,2.631A3.938,3.938,0,0,1,30.689,34.65Z" transform="translate(-16.741 -17.762)" fill="#536e86"/>
      </g>
    </g>
  </g>
</svg>
