<svg xmlns="http://www.w3.org/2000/svg" width="18.083" height="18.082" viewBox="0 0 18.083 18.082"><defs><style>.a{fill:#cecfd0;}</style></defs><path class="a" d="M16.576,0H1.507A1.511,1.511,0,0,0,0,1.507V16.576a1.511,1.511,0,0,0,1.507,1.507H16.576a1.511,1.511,0,0,0,1.507-1.507V1.507A1.511,1.511,0,0,0,16.576,0ZM3.014,15.822H1.507V14.316H3.014Zm0-3.767H1.507V10.548H3.014Zm0-4.521H1.507V6.028H3.014Zm0-3.767H1.507V2.26H3.014Zm10.548,11.3H4.521V9.795h9.041Zm0-6.781H4.521V3.014h9.041Zm3.014,7.534H15.069V14.316h1.507Zm0-3.767H15.069V10.548h1.507Zm0-4.521H15.069V6.028h1.507Zm0-3.767H15.069V2.26h1.507Z"/></svg>