<svg xmlns="http://www.w3.org/2000/svg" width="18.083" height="18.082" viewBox="0 0 18.083 18.082"><defs><style>.a{fill:#cecfd0;}</style></defs><path class="a" d="M9.041,0a9.041,9.041,0,1,0,9.041,9.041A9.068,9.068,0,0,0,9.041,0ZM5.651,6.028a1.13,1.13,0,1,1-1.13,1.13A1.159,1.159,0,0,1,5.651,6.028Zm7.685,6.555a5.973,5.973,0,0,1-4.295,1.733,5.973,5.973,0,0,1-4.295-1.733A.746.746,0,1,1,5.8,11.528a4.62,4.62,0,0,0,3.24,1.281,4.62,4.62,0,0,0,3.24-1.281.746.746,0,0,1,1.055,1.055Zm-.9-4.295a1.13,1.13,0,1,1,1.13-1.13A1.159,1.159,0,0,1,12.432,8.288Z"/></svg>