<svg xmlns="http://www.w3.org/2000/svg" width="18.091" height="18.166" viewBox="0 0 18.091 18.166"><defs><style>.a{fill:#cecfd0;}</style></defs><path class="a" d="M16.6,1.569A5.8,5.8,0,0,0,12.716,0,5.643,5.643,0,0,0,8.835,1.569a1.242,1.242,0,0,0-.33.908,1.731,1.731,0,0,0,.33.908,1.242,1.242,0,0,0,.908.33h0a1.731,1.731,0,0,0,.908-.33,3.091,3.091,0,0,1,4.294,0,3.482,3.482,0,0,1,.743,2.064A3,3,0,0,1,14.78,7.6L7.6,14.78a3.091,3.091,0,0,1-4.294,0,3.088,3.088,0,0,1-.826-2.064,3,3,0,0,1,.908-2.147L6.44,7.514a.9.9,0,0,1,1.239,0,1,1,0,0,1,0,1.321L5.45,11.064a1.242,1.242,0,0,0-.33.908,1.731,1.731,0,0,0,.33.908,1.369,1.369,0,0,0,1.734,0l2.229-2.229a3.389,3.389,0,0,0,0-4.789,3.307,3.307,0,0,0-2.395-.991,2.933,2.933,0,0,0-2.312.908L1.651,8.835A5.239,5.239,0,0,0,0,12.716,5.643,5.643,0,0,0,1.569,16.6,5.8,5.8,0,0,0,5.45,18.165,5.643,5.643,0,0,0,9.33,16.6l7.184-7.184a5.3,5.3,0,0,0,1.569-3.881A5.409,5.409,0,0,0,16.6,1.569Z" transform="translate(0 -0.001)"/></svg>