<svg width="26" height="33" viewBox="0 0 26 33" fill="none" xmlns="http://www.w3.org/2000/svg">
<path d="M19.2072 0.789062H8.37219C7.8502 0.790645 7.35005 0.998706 6.98094 1.36781C6.61184 1.73691 6.40377 2.23707 6.40219 2.75906V5.71406H2.46219C1.9402 5.71565 1.44004 5.92371 1.07094 6.29281C0.701834 6.66191 0.49377 7.16207 0.492188 7.68406V30.3371C0.49377 30.8591 0.701834 31.3592 1.07094 31.7283C1.44004 32.0974 1.9402 32.3055 2.46219 32.3071H17.2372C17.7592 32.3055 18.2593 32.0974 18.6284 31.7283C18.9975 31.3592 19.2056 30.8591 19.2072 30.3371V27.3821H23.1472C23.6692 27.3805 24.1693 27.1724 24.5384 26.8033C24.9075 26.4342 25.1156 25.9341 25.1172 25.4121V7.68406L19.2072 0.789062ZM19.2072 2.26606L23.8362 7.68306H20.1912C19.9357 7.66575 19.6951 7.55642 19.5139 7.37531C19.3328 7.1942 19.2235 6.9536 19.2062 6.69806L19.2072 2.26606ZM18.2222 30.3361C18.2217 30.5971 18.1177 30.8474 17.9331 31.032C17.7485 31.2166 17.4983 31.3205 17.2372 31.3211H2.46319C2.20211 31.3205 1.95188 31.2166 1.76727 31.032C1.58266 30.8474 1.47872 30.5971 1.47819 30.3361V7.68306C1.47872 7.42199 1.58266 7.17175 1.76727 6.98715C1.95188 6.80254 2.20211 6.69859 2.46319 6.69806H12.3122V11.6231C12.3138 12.1451 12.5218 12.6452 12.8909 13.0143C13.26 13.3834 13.7602 13.5915 14.2822 13.5931H18.2222V30.3361ZM13.2972 11.6231V7.18906L17.9262 12.6061H14.2822C14.027 12.5888 13.7866 12.4798 13.6056 12.2991C13.4245 12.1184 13.315 11.8782 13.2972 11.6231ZM24.1312 25.4121C24.1307 25.6731 24.0267 25.9234 23.8421 26.108C23.6575 26.2926 23.4073 26.3965 23.1462 26.3971H19.2062V12.6081L13.2962 5.71406H7.38619V2.75906C7.38672 2.49799 7.49067 2.24776 7.67528 2.06315C7.85989 1.87854 8.11012 1.77459 8.37119 1.77406H18.2202V6.69906C18.2218 7.22105 18.4298 7.72121 18.7989 8.09031C19.168 8.45942 19.6682 8.66748 20.1902 8.66906H24.1302V25.4121H24.1312Z" fill="#F9F6F6"/>
</svg>
