<svg width="26" height="26" viewBox="0 0 26 26" fill="none" xmlns="http://www.w3.org/2000/svg">
<path d="M3.20022 11.2052C3.19033 10.1519 3.39051 9.10716 3.78905 8.1321C4.18759 7.15703 4.77649 6.27118 5.52134 5.52634C6.26618 4.78149 7.15203 4.19259 8.1271 3.79405C9.10216 3.39551 10.1469 3.19533 11.2002 3.20521C12.2535 3.19533 13.2983 3.39551 14.2733 3.79405C15.2484 4.19259 16.1342 4.78149 16.8791 5.52634C17.6239 6.27118 18.2128 7.15703 18.6114 8.1321C19.0099 9.10716 19.2101 10.1519 19.2002 11.2052C19.2101 12.2585 19.0099 13.3033 18.6114 14.2783C18.2128 15.2534 17.6239 16.1392 16.8791 16.8841C16.1342 17.6289 15.2484 18.2178 14.2733 18.6164C13.2983 19.0149 12.2535 19.2151 11.2002 19.2052C10.1469 19.2151 9.10216 19.0149 8.1271 18.6164C7.15203 18.2178 6.26618 17.6289 5.52134 16.8841C4.77649 16.1392 4.18759 15.2534 3.78905 14.2783C3.39051 13.3033 3.19033 12.2585 3.20022 11.2052ZM22.8902 25.1322C23.1895 25.4188 23.5892 25.5768 24.0036 25.5723C24.418 25.5678 24.8141 25.4012 25.1071 25.1081C25.4002 24.8151 25.5668 24.419 25.5713 24.0046C25.5758 23.5902 25.4178 23.1905 25.1312 22.8912L20.1702 17.9292C21.6411 15.9982 22.4293 13.6335 22.4112 11.2062C22.4204 9.73206 22.1368 8.27076 21.5769 6.90705C21.017 5.54334 20.1919 4.30435 19.1495 3.26195C18.1071 2.21955 16.8681 1.39447 15.5044 0.83456C14.1407 0.27465 12.6794 -0.00894675 11.2052 0.000215102C9.73123 -0.00881252 8.27012 0.27485 6.90659 0.834757C5.54306 1.39466 4.30424 2.21967 3.26196 3.26196C2.21967 4.30424 1.39466 5.54306 0.834757 6.90659C0.27485 8.27012 -0.00881256 9.73123 0.000215064 11.2052C-0.00894544 12.6793 0.274619 14.1405 0.834466 15.5041C1.39431 16.8678 2.2193 18.1067 3.2616 19.1491C4.3039 20.1915 5.54276 21.0166 6.90636 21.5766C8.26995 22.1365 9.73115 22.4202 11.2052 22.4112C13.6325 22.4293 15.9972 21.6411 17.9282 20.1702L22.8902 25.1322Z" fill="white"/>
</svg>
