<svg width="47" height="37" viewBox="0 0 47 37" fill="none" xmlns="http://www.w3.org/2000/svg">
<path d="M13.8492 20.3762V15.5942L22.2182 23.9632L13.8492 32.3322V27.4322C7.87124 27.4322 3.68724 29.3452 0.698242 33.5322C1.89824 27.5502 5.48024 21.5722 13.8492 20.3762Z" stroke="#F5F1FD"/>
<path d="M26.9559 6.96484H26.2749V11.7348H26.9559V6.96484Z" fill="white"/>
<path d="M46.2708 6.96484H45.5898V10.4628H46.2708V6.96484Z" fill="white"/>
<path d="M26.9559 12.4839H26.2749V17.2539H26.9559V12.4839Z" fill="white"/>
<path d="M45.7779 33.428C45.7779 34.2663 45.4449 35.0703 44.8521 35.6632C44.2593 36.256 43.4553 36.589 42.617 36.589H29.9549C29.1166 36.589 28.3126 36.256 27.7198 35.6632C27.127 35.0703 26.7939 34.2663 26.7939 33.428V3.76502C26.7939 2.92667 27.127 2.12265 27.7198 1.52985C28.3126 0.937046 29.1166 0.604006 29.9549 0.604006H42.6129C43.0284 0.603481 43.4399 0.684828 43.8238 0.843447C44.2078 1.00207 44.5568 1.23481 44.8507 1.52838C45.1446 1.82196 45.3778 2.17061 45.5369 2.55438C45.6961 2.93816 45.7779 3.34957 45.7779 3.76502V33.428Z" fill="white"/>
<path d="M38.883 1.8031C38.883 1.83252 38.8772 1.86168 38.866 1.88885C38.8547 1.91603 38.8382 1.94069 38.8174 1.96149C38.7966 1.98229 38.7719 1.99881 38.7448 2.01007C38.7176 2.02133 38.6885 2.0271 38.659 2.0271H33.91C33.8806 2.0271 33.8515 2.02133 33.8243 2.01007C33.7971 1.99881 33.7724 1.98229 33.7516 1.96149C33.7308 1.94069 33.7144 1.91603 33.7031 1.88885C33.6918 1.86168 33.686 1.83252 33.686 1.8031C33.686 1.74369 33.7096 1.68672 33.7516 1.64471C33.7937 1.60271 33.8506 1.5791 33.91 1.5791H38.663C38.7224 1.5791 38.7794 1.60271 38.8214 1.64471C38.8634 1.68672 38.887 1.74369 38.887 1.8031H38.883Z" fill="#E6E7E8"/>
<path d="M42.6118 1.13281H41.2898C41.2898 1.17181 41.2958 1.21179 41.2958 1.25079C41.2958 1.59557 41.1588 1.92625 40.915 2.17004C40.6712 2.41384 40.3405 2.55084 39.9958 2.55084H32.5658C32.221 2.55084 31.8903 2.41384 31.6465 2.17004C31.4027 1.92625 31.2658 1.59557 31.2658 1.25079C31.2658 1.21079 31.2658 1.17181 31.2718 1.13281H29.9498C29.2533 1.13361 28.5855 1.41065 28.0931 1.90314C27.6006 2.39562 27.3235 3.06335 27.3228 3.75983V33.4268C27.3235 34.1233 27.6006 34.791 28.0931 35.2835C28.5855 35.776 29.2533 36.053 29.9498 36.0538H42.6078C43.3042 36.053 43.972 35.776 44.4644 35.2835C44.9569 34.791 45.234 34.1233 45.2348 33.4268V3.75983C45.234 3.06404 44.9575 2.39691 44.4659 1.90454C43.9742 1.41217 43.3075 1.13466 42.6118 1.13281Z" fill="#27A9E0"/>
<path opacity="0.5" d="M37.4769 34.0031C37.4769 34.2392 37.4068 34.47 37.2756 34.6664C37.1444 34.8627 36.9579 35.0158 36.7398 35.1062C36.5216 35.1966 36.2815 35.2201 36.0499 35.1741C35.8183 35.128 35.6055 35.0143 35.4386 34.8473C35.2716 34.6803 35.1579 34.4676 35.1118 34.236C35.0657 34.0043 35.0894 33.7643 35.1797 33.5461C35.2701 33.328 35.4232 33.1415 35.6195 33.0103C35.8159 32.8791 36.0467 32.8091 36.2829 32.8091C36.5995 32.8091 36.9032 32.9349 37.1271 33.1588C37.3511 33.3827 37.4769 33.6864 37.4769 34.0031Z" fill="#E6E7E8"/>
<path opacity="0.8" d="M37.0357 34.0029C37.0357 34.1517 36.9916 34.2971 36.909 34.4208C36.8264 34.5444 36.7089 34.6408 36.5715 34.6978C36.4341 34.7547 36.2829 34.7695 36.137 34.7405C35.9912 34.7115 35.8572 34.6398 35.752 34.5347C35.6468 34.4295 35.5752 34.2955 35.5462 34.1497C35.5172 34.0038 35.5321 33.8526 35.589 33.7152C35.6459 33.5778 35.7423 33.4603 35.8659 33.3777C35.9896 33.2951 36.135 33.251 36.2838 33.251C36.3825 33.251 36.4803 33.2704 36.5715 33.3082C36.6627 33.346 36.7457 33.4014 36.8155 33.4712C36.8853 33.541 36.9407 33.624 36.9785 33.7152C37.0163 33.8064 37.0357 33.9042 37.0357 34.0029Z" fill="#E6E7E8"/>
<path opacity="0.5" d="M30.249 34.002L30.833 34.5859V33.418L30.249 34.002Z" fill="white"/>
<path opacity="0.5" d="M42.7778 34.002C42.7778 34.1008 42.7485 34.1976 42.6936 34.2798C42.6386 34.362 42.5605 34.426 42.4692 34.4639C42.3778 34.5017 42.2773 34.5116 42.1803 34.4923C42.0833 34.473 41.9942 34.4254 41.9243 34.3555C41.8544 34.2855 41.8067 34.1965 41.7874 34.0995C41.7681 34.0025 41.778 33.902 41.8159 33.8107C41.8537 33.7193 41.9178 33.6411 42.0001 33.5862C42.0823 33.5312 42.1789 33.502 42.2778 33.502C42.4104 33.502 42.5376 33.5547 42.6314 33.6484C42.7251 33.7422 42.7778 33.8693 42.7778 34.002Z" fill="white"/>
<path opacity="0.1" d="M27.3267 26.6138L45.2397 8.70081V15.0538L27.3267 32.9658V26.6138ZM42.6117 1.13281H41.2897C41.2897 1.17181 41.2957 1.21179 41.2957 1.25079C41.2957 1.59557 41.1588 1.92625 40.915 2.17004C40.6712 2.41384 40.3405 2.55084 39.9957 2.55084H39.0077L27.3237 14.2348V23.2908L45.2367 5.37885V3.76282C45.2367 3.06616 44.9603 2.39798 44.4682 1.90491C43.9761 1.41183 43.3084 1.13414 42.6117 1.13281Z" fill="white"/>
<path d="M30.8449 10.2538C31.3279 10.2538 31.6669 9.84577 31.6669 9.18877C31.6669 8.53177 31.3279 8.12377 30.8449 8.12377C30.3619 8.12377 30.0229 8.53177 30.0229 9.18877C30.0229 9.84577 30.3619 10.2538 30.8449 10.2538ZM30.8449 10.1128C30.4489 10.1128 30.1759 9.77377 30.1759 9.18877C30.1759 8.60377 30.4489 8.26477 30.8449 8.26477C31.2409 8.26477 31.5139 8.60377 31.5139 9.18877C31.5139 9.77377 31.2409 10.1128 30.8449 10.1128ZM32.8375 8.99677C32.5195 8.99677 32.2555 9.15277 32.1685 9.42877C32.1535 9.33277 32.1505 9.23977 32.1505 9.17677C32.1505 8.56777 32.4595 8.25877 32.9305 8.25877C33.0895 8.25877 33.2365 8.28577 33.3445 8.35477L33.4075 8.23177C33.2785 8.15377 33.1105 8.12377 32.9305 8.12377C32.3755 8.12377 31.9975 8.48977 31.9975 9.20077C31.9975 9.85777 32.2885 10.2538 32.8405 10.2538C33.2425 10.2538 33.5395 10.0048 33.5395 9.62077C33.5395 9.24277 33.2575 8.99677 32.8375 8.99677ZM32.8345 10.1218C32.4415 10.1218 32.2345 9.87577 32.2345 9.62977C32.2345 9.34777 32.4715 9.12877 32.8165 9.12877C33.1705 9.12877 33.3865 9.32377 33.3865 9.62377C33.3865 9.92677 33.1615 10.1218 32.8345 10.1218ZM33.9372 8.91577C34.0062 8.91577 34.0632 8.85877 34.0632 8.78677C34.0632 8.71477 34.0062 8.66077 33.9372 8.66077C33.8682 8.66077 33.8112 8.71477 33.8112 8.78677C33.8112 8.85877 33.8682 8.91577 33.9372 8.91577ZM33.9372 10.2508C34.0062 10.2508 34.0632 10.1938 34.0632 10.1218C34.0632 10.0498 34.0062 9.99577 33.9372 9.99577C33.8682 9.99577 33.8112 10.0498 33.8112 10.1218C33.8112 10.1938 33.8682 10.2508 33.9372 10.2508ZM34.5858 10.1008L35.3598 9.32977C35.6358 9.05677 35.7018 8.87977 35.7018 8.67877C35.7018 8.33677 35.4378 8.12377 35.0268 8.12377C34.7118 8.12377 34.4628 8.22877 34.3038 8.41177L34.4118 8.50777C34.5558 8.34277 34.7508 8.26477 35.0148 8.26477C35.3628 8.26477 35.5458 8.42977 35.5458 8.69377C35.5458 8.85277 35.4978 8.99977 35.2488 9.24877L34.3608 10.1308V10.2388H35.8038V10.1008H34.5858ZM36.7262 8.12377C36.3242 8.12377 36.0272 8.37277 36.0272 8.75677C36.0272 9.13477 36.3092 9.38077 36.7292 9.38077C37.0472 9.38077 37.3112 9.22477 37.3982 8.94877C37.4132 9.04477 37.4162 9.13777 37.4162 9.20077C37.4162 9.80977 37.1072 10.1188 36.6362 10.1188C36.4772 10.1188 36.3302 10.0918 36.2222 10.0228L36.1592 10.1458C36.2882 10.2238 36.4562 10.2538 36.6362 10.2538C37.1912 10.2538 37.5692 9.88777 37.5692 9.17677C37.5692 8.51977 37.2782 8.12377 36.7262 8.12377ZM36.7502 9.24877C36.3962 9.24877 36.1802 9.05377 36.1802 8.75377C36.1802 8.45077 36.4052 8.25577 36.7322 8.25577C37.1252 8.25577 37.3322 8.50177 37.3322 8.74777C37.3322 9.02977 37.0952 9.24877 36.7502 9.24877Z" fill="white"/>
</svg>
