<svg xmlns="http://www.w3.org/2000/svg" xmlns:xlink="http://www.w3.org/1999/xlink" width="793.152" height="461.345" viewBox="0 0 793.152 461.345"><defs><style>.a,.v{fill:none;}.b{fill:#142743;}.c{fill:#f9d53d;}.d{fill:#023859;}.e{fill:#fff;}.f{fill:#22344e;}.g{fill:#cf7718;}.h{fill:#00a5af;}.i{fill:#b7bcbc;}.j{fill:#dedede;}.k,.l{fill:#051a37;}.l{opacity:0.3;}.m{fill:#bce0fd;}.n{clip-path:url(#a);}.o,.p{fill:#382263;}.o{fill-rule:evenodd;}.p{font-size:11px;font-family:Tahoma-Bold, Tahoma;}.p,.r{font-weight:700;}.q{fill:#f1f9ff;}.r,.s,.u{fill:#2699fb;}.r{font-size:7px;font-family:Arial-BoldMT, Arial;}.s{font-size:3px;font-family:ArialMT, Arial;}.t{clip-path:url(#b);}.v,.w{stroke:#382263;}.w{fill:#f2f1f1;}</style><clipPath id="a"><rect class="a" width="10.304" height="10.304"/></clipPath><clipPath id="b"><rect class="a" width="25.76" height="25.76"/></clipPath></defs><g transform="translate(0)"><g transform="translate(0 0)"><path class="b" d="M329.775,264.8c0,3.734-28.954,6.758-64.666,6.758s-64.668-3.025-64.668-6.758,28.951-6.757,64.668-6.757S329.775,261.07,329.775,264.8Z" transform="translate(306.124 -26.741)"/><g transform="translate(535.891 0.487)"><path class="c" d="M3.134,0H73.776a3.133,3.133,0,0,1,3.133,3.133V45.778a3.135,3.135,0,0,1-3.135,3.135H3.135A3.135,3.135,0,0,1,0,45.778V3.134A3.134,3.134,0,0,1,3.134,0Z"/><g transform="translate(0 9.208)"><rect class="d" width="76.909" height="8.632"/></g><g transform="translate(17.83 21.873)"><path class="e" d="M391.364,225.478l-1.891,2.223.017.053,2.783-.559v1.768l-2.8-.49-.016.051,1.908,2.153-1.559.911-1-2.713-.034.017-1.014,2.7-1.5-.911,1.871-2.188v-.034l-2.746.508v-1.768l2.712.542.016-.035-1.854-2.205,1.556-.893.982,2.678h.035l1-2.678Z" transform="translate(-385.379 -224.602)"/><path class="e" d="M397.715,225.478l-1.891,2.223.018.053,2.782-.559v1.768l-2.8-.49-.017.051,1.909,2.153-1.559.911-1-2.713-.035.017-1.016,2.7-1.5-.911,1.874-2.188v-.034l-2.749.508v-1.768l2.712.542.02-.035L392.6,225.5l1.559-.893.979,2.678h.034l1-2.678Z" transform="translate(-383.786 -224.602)"/><path class="e" d="M404.063,225.478l-1.889,2.223.018.053,2.783-.559v1.768l-2.8-.49-.016.051,1.905,2.153-1.556.911-1-2.713-.034.017-1.014,2.7-1.5-.911,1.871-2.188v-.034l-2.746.508v-1.768l2.712.542.017-.035-1.855-2.205,1.556-.893.981,2.678h.036l1-2.678Z" transform="translate(-382.193 -224.602)"/><path class="e" d="M410.415,225.478l-1.891,2.223.018.053,2.782-.559v1.768l-2.8-.49-.018.051,1.909,2.153-1.559.911-1-2.713-.035.017-1.016,2.7-1.5-.911,1.874-2.188v-.034l-2.748.508v-1.768l2.712.542.019-.035L405.3,225.5l1.559-.893.979,2.678h.034l1-2.678Z" transform="translate(-380.6 -224.602)"/><path class="e" d="M416.764,225.478l-1.888,2.223.016.053,2.783-.559v1.768l-2.8-.49-.018.051,1.905,2.153-1.556.911-1-2.713-.036.017-1.013,2.7-1.506-.911,1.872-2.188v-.034l-2.747.508v-1.768l2.712.542.018-.035-1.855-2.205,1.557-.893.979,2.678h.036l1-2.678Z" transform="translate(-379.006 -224.602)"/><path class="e" d="M423.116,225.478l-1.891,2.223.017.053,2.783-.559v1.768l-2.8-.49-.016.051,1.908,2.153-1.559.911-1-2.713-.034.017-1.017,2.7-1.5-.911,1.871-2.188v-.034l-2.746.508v-1.768l2.712.542.019-.035-1.856-2.205,1.556-.893.982,2.678h.035l1-2.678Z" transform="translate(-377.413 -224.602)"/><path class="e" d="M429.467,225.478l-1.891,2.223.018.053,2.784-.559v1.768l-2.8-.49-.017.051,1.909,2.153-1.557.911-1-2.713-.035.017-1.016,2.7-1.5-.911,1.874-2.188v-.034l-2.749.508v-1.768l2.714.542.018-.035-1.856-2.205,1.559-.893.979,2.678h.034l1-2.678Z" transform="translate(-375.82 -224.602)"/></g></g><path class="e" d="M205.805,156.136H152.039l6.5-10.141h37.924a1.247,1.247,0,0,0,1.19-.877l9.339-29.981a1.242,1.242,0,0,0-1.187-1.615h-51.9l-1.671-10.009a1.245,1.245,0,0,0-1.228-1.041h-9.34a1.245,1.245,0,1,0,0,2.49h8.285l6.6,39.518-7.835,12.23a1.244,1.244,0,0,0,1.048,1.916h2.126a4.957,4.957,0,1,0,8.587,0h32.53a4.956,4.956,0,1,0,8.588,0h4.21a1.245,1.245,0,0,0,0-2.49Zm-7.131-22.667h-5.661v-9.05h8.481Zm-8.151,0H178.706v-9.05h11.817Zm-11.817,2.49h11.817V143.5H178.706Zm-2.489,7.543H164.4v-7.543h11.819Zm2.489-21.574v-5.915h11.817v5.915Zm-2.489,0H164.4v-5.915h11.819Zm0,2.49v9.05H164.4v-9.05Zm-14.31,9.05h-4.67l-1.511-9.05h6.181Zm0,2.49V143.5h-2.993l-1.26-7.543Zm33.641,7.543h-2.536v-7.543H197.9Zm6.721-21.574h-9.256v-5.915h11.1Zm-40.362-5.915v5.915h-6.6l-.987-5.915Zm-3.259,45.08a2.466,2.466,0,1,1-2.467-2.467A2.467,2.467,0,0,1,158.648,161.093Zm41.119,0a2.467,2.467,0,1,1-2.467-2.467A2.468,2.468,0,0,1,199.767,161.093Z" transform="translate(92.666 126.23)"/><path class="f" d="M133.5,273.607a5.195,5.195,0,1,1-5.195-5.2A5.195,5.195,0,0,1,133.5,273.607Z" transform="translate(286.724 -24.141)"/><path class="f" d="M96.219,314.63a5.195,5.195,0,1,1-5.195-5.2A5.194,5.194,0,0,1,96.219,314.63Z" transform="translate(277.371 -13.849)"/><circle class="f" cx="5.195" cy="5.195" r="5.195" transform="translate(514.301 49.569)"/><circle class="f" cx="5.195" cy="5.195" r="5.195" transform="translate(386.321 90.801)"/><path class="f" d="M395.769,185.323a5.195,5.195,0,1,1-5.2-5.195A5.2,5.2,0,0,1,395.769,185.323Z" transform="translate(352.519 -46.288)"/><path class="f" d="M431.635,273.6a5.2,5.2,0,1,1-5.2-5.195A5.2,5.2,0,0,1,431.635,273.6Z" transform="translate(361.517 -24.141)"/><path class="e" d="M360.766,234.083a5.2,5.2,0,1,1-5.2-5.194A5.2,5.2,0,0,1,360.766,234.083Z" transform="translate(343.738 -34.056)"/><path class="e" d="M164.807,304.626a5.2,5.2,0,1,1-5.195-5.194A5.195,5.195,0,0,1,164.807,304.626Z" transform="translate(294.577 -16.358)"/><path class="e" d="M173.292,166.477a5.195,5.195,0,1,1-5.195-5.194A5.2,5.2,0,0,1,173.292,166.477Z" transform="translate(296.706 -51.016)"/><path class="e" d="M307.684,118.759a5.2,5.2,0,1,1-5.2-5.194A5.2,5.2,0,0,1,307.684,118.759Z" transform="translate(330.421 -62.987)"/><path class="g" d="M351.047,351.077a5.2,5.2,0,1,1-5.195-5.194A5.2,5.2,0,0,1,351.047,351.077Z" transform="translate(-340.656 84.184)"/><path class="c" d="M325.414,396.2a5.2,5.2,0,1,1-5.2-5.194A5.2,5.2,0,0,1,325.414,396.2Z" transform="translate(316.38 59.948)"/><path class="f" d="M285.949,399.235a5.195,5.195,0,1,1-5.2-5.194A5.2,5.2,0,0,1,285.949,399.235Z" transform="translate(324.969 7.376)"/><path class="c" d="M148.31,391.464a5.2,5.2,0,1,1-5.195-5.194A5.195,5.195,0,0,1,148.31,391.464Z" transform="translate(161.727 0.449)"/><path class="f" d="M216.89,370.365a3.055,3.055,0,1,1-3.056-3.055A3.055,3.055,0,0,1,216.89,370.365Z" transform="translate(308.717 0.67)"/><path class="c" d="M115.946,174.74a3.055,3.055,0,1,1-3.055-3.055A3.054,3.054,0,0,1,115.946,174.74Z" transform="translate(283.393 -48.406)"/><path class="c" d="M408.1,259.211a3.055,3.055,0,1,1-3.053-3.057A3.054,3.054,0,0,1,408.1,259.211Z" transform="translate(375.174 -145.971)"/><path class="c" d="M345.221,407.977a3.055,3.055,0,1,1-3.056-3.053A3.057,3.057,0,0,1,345.221,407.977Z" transform="translate(209.356 -43.227)"/><path class="c" d="M414.448,189.711a3.055,3.055,0,1,1-3.055-3.056A3.054,3.054,0,0,1,414.448,189.711Z" transform="translate(-172.921 93.305)"/><path class="c" d="M219.332,92.458a3.055,3.055,0,1,1-3.055-3.056A3.055,3.055,0,0,1,219.332,92.458Z" transform="translate(59.019 -7.182)"/><path class="c" d="M125.515,128.5a3.055,3.055,0,1,1-3.056-3.056A3.055,3.055,0,0,1,125.515,128.5Z" transform="translate(425.171 -94.852)"/><path class="c" d="M152.833,274.888a3.055,3.055,0,1,1-3.056-3.056A3.055,3.055,0,0,1,152.833,274.888Z" transform="translate(292.647 -23.282)"/><path class="f" d="M89.5,267.021a3.055,3.055,0,1,1-3.055-3.056A3.055,3.055,0,0,1,89.5,267.021Z" transform="translate(276.758 -25.256)"/><path class="c" d="M82.391,259.211a3.055,3.055,0,1,1-3.056-3.057A3.055,3.055,0,0,1,82.391,259.211Z" transform="translate(274.975 -27.216)"/><g transform="translate(613.539 82.968)"><g transform="translate(0 0)"><path class="e" d="M291.926,168.094v-3.335a14.1,14.1,0,0,1-5.965-1.507l1.053-4.107a12.367,12.367,0,0,0,5.824,1.545c2,0,3.369-.772,3.369-2.178,0-1.332-1.121-2.175-3.72-3.051-3.753-1.265-6.316-3.018-6.316-6.422,0-3.087,2.176-5.51,5.932-6.247v-3.334h3.437v3.09a12.575,12.575,0,0,1,5.089,1.158l-1.018,3.963a11.649,11.649,0,0,0-5.052-1.192c-2.282,0-3.02.982-3.02,1.965,0,1.157,1.228,1.894,4.212,3.02,4.178,1.472,5.862,3.4,5.862,6.56,0,3.125-2.212,5.79-6.248,6.491v3.581Z" transform="translate(-285.961 -139.459)"/></g></g><g transform="translate(403.917 103.578)"><path class="h" d="M500.316,326.128c0,6.556-75.572,11.872-168.795,11.872s-168.8-5.316-168.8-11.872,75.572-11.872,168.8-11.872S500.316,319.572,500.316,326.128Z" transform="translate(-162.723 -49.722)"/><g transform="translate(1.693)"><rect class="i" width="103.811" height="43.331" transform="translate(115.198 218.877)"/><rect class="j" width="182.783" height="12.204" transform="translate(75.371 262.207)"/><path class="j" d="M17.233,0H316.977a17.23,17.23,0,0,1,17.23,17.23V216.807a17.23,17.23,0,0,1-17.23,17.23H17.23A17.23,17.23,0,0,1,0,216.807V17.233A17.233,17.233,0,0,1,17.233,0Z"/><path class="f" d="M465.3,174.127H196.147a32.527,32.527,0,0,0-32.527,32.527v168.98H497.827V206.654A32.529,32.529,0,0,0,465.3,174.127Z" transform="translate(-163.619 -174.127)"/><path class="k" d="M260.974,289.895a6.1,6.1,0,1,1-6.1-6.1A6.1,6.1,0,0,1,260.974,289.895Z" transform="translate(-88.018 -76.763)"/><path class="l" d="M224.642,298.1v28.169l103.811-16.592V298.1Z" transform="translate(-109.445 -64.064)"/><path class="b" d="M465.3,174.127H196.147a32.527,32.527,0,0,0-32.527,32.527v168.98H497.827V206.654A32.529,32.529,0,0,0,465.3,174.127Zm22.771,191.75H173.378V206.654a22.8,22.8,0,0,1,22.769-22.769H465.3a22.8,22.8,0,0,1,22.771,22.769Z" transform="translate(-163.619 -174.127)"/></g><g transform="translate(275.399 151.484)"><path class="e" d="M323.953,266.955l3.861-3.864-19.206-8.72,8.716,19.206,3.864-3.857,4.605,4.605,2.765-2.765Z" transform="translate(-308.607 -254.371)"/></g></g><path class="e" d="M144.043,170.522l-2.685-4.908-2.684,4.908-4.908,2.684,4.908,2.685,2.684,4.908,2.685-4.908,4.908-2.685Z" transform="translate(289.397 -49.929)"/><path class="e" d="M366.356,392.879l-2.683-4.908-2.685,4.908-4.908,2.683,4.908,2.685,2.685,4.908,2.683-4.908,4.908-2.685Z" transform="translate(345.169 5.854)"/><path class="e" d="M423.534,308.494l-2.683-4.908-2.685,4.908-4.908,2.683,4.908,2.685,2.685,4.908,2.683-4.908,4.908-2.685Z" transform="translate(359.513 -15.316)"/><path class="e" d="M304.575,78.039l-2.683-4.908-2.685,4.908L294.3,80.723l4.908,2.685,2.685,4.908,2.683-4.908,4.908-2.685Z" transform="translate(329.67 -73.131)"/><path class="f" d="M357.945,190.811l-1.686-3.082-1.686,3.082L351.49,192.5l3.083,1.686,1.686,3.082,1.686-3.082,3.081-1.686Z" transform="translate(344.018 -44.382)"/><path class="f" d="M144.715,125l-1.686-3.082L141.343,125l-3.082,1.686,3.082,1.686,1.686,3.082,1.686-3.082,3.081-1.686Z" transform="translate(290.524 -60.891)"/><path class="f" d="M151.807,245.49l-1.686-3.082-1.686,3.082-3.082,1.685,3.082,1.686,1.686,3.082,1.686-3.082,3.081-1.686Z" transform="translate(292.304 -30.664)"/><path class="e" d="M303.011,419.929l-1.686-3.083-1.686,3.083-3.083,1.686,3.083,1.686,1.686,3.081,1.686-3.081,3.081-1.686Z" transform="translate(330.236 13.098)"/><path class="f" d="M111.109,302.857l-1.686-3.083-1.686,3.083-3.082,1.686,3.082,1.686,1.686,3.081,1.686-3.081,3.081-1.686Z" transform="translate(282.094 -16.273)"/><path class="f" d="M188.707,397.122l-1.686-3.081-1.686,3.081-3.082,1.686,3.082,1.686,1.686,3.081,1.686-3.081,3.081-1.686Z" transform="translate(301.561 7.376)"/><path class="f" d="M344.2,377.56l-1.686-3.083-1.686,3.083-3.083,1.686,3.083,1.686,1.686,3.081,1.686-3.081,3.081-1.686Z" transform="translate(340.569 2.468)"/><path class="f" d="M400.722,290.163l-1.686-3.083-1.686,3.083-3.083,1.686,3.083,1.686,1.686,3.081,1.686-3.081,3.081-1.686Z" transform="translate(354.749 -19.457)"/><path class="f" d="M406.234,155.54l-1.686-3.082-1.686,3.082-3.083,1.686,3.083,1.686,1.686,3.081,1.686-3.081,3.081-1.686Z" transform="translate(356.132 -53.23)"/><path class="f" d="M286.507,101.743l-1.686-3.082-1.686,3.082-3.083,1.686,3.083,1.686,1.686,3.081,1.686-3.081,3.081-1.686Z" transform="translate(326.096 -66.726)"/><path class="f" d="M196.329,78.472l-1.686-3.082-1.686,3.082-3.082,1.686,3.082,1.686,1.686,3.081,1.686-3.081,3.081-1.686Z" transform="translate(303.473 -72.564)"/><path class="e" d="M205.843,419.918l-2.684-4.908-2.685,4.908-4.908,2.685,4.908,2.685,2.685,4.908,2.684-4.908,4.908-2.685Z" transform="translate(304.901 12.637)"/><path class="e" d="M85.372,291.936l-2.684-4.908L80,291.936,75.1,294.621,80,297.305l2.685,4.908,2.684-4.908,4.908-2.685Z" transform="translate(274.678 -19.47)"/><g transform="translate(522.543 387.221)"><path class="g" d="M216.42,134.986h45.5a3.207,3.207,0,0,1,3.206,3.206v25.953a3.2,3.2,0,0,1-3.206,3.2H230.553l-7.463,7.463v-7.463H216.42a3.2,3.2,0,0,1-3.2-3.2V138.192A3.206,3.206,0,0,1,216.42,134.986Z" transform="translate(-213.215 -123.412)"/><path class="c" d="M277.483,125.733h-45.5a3.2,3.2,0,0,0-3.2,3.2V154.89a3.2,3.2,0,0,0,3.2,3.2H263.35l7.461,7.46v-7.46h6.672a3.2,3.2,0,0,0,3.2-3.2V128.936A3.2,3.2,0,0,0,277.483,125.733Z" transform="translate(-209.311 -125.733)"/><g transform="translate(35.969 15.47)"><path class="f" d="M245.638,139.934a1.834,1.834,0,1,1-1.832-1.834A1.832,1.832,0,0,1,245.638,139.934Z" transform="translate(-241.97 -138.1)"/><path class="f" d="M251.728,139.934a1.834,1.834,0,1,1-1.834-1.834A1.833,1.833,0,0,1,251.728,139.934Z" transform="translate(-240.442 -138.1)"/><path class="f" d="M257.818,139.934a1.834,1.834,0,1,1-1.833-1.834A1.832,1.832,0,0,1,257.818,139.934Z" transform="translate(-238.914 -138.1)"/></g></g></g><g transform="translate(326.6 62.811)"><g transform="translate(10.654 0)"><rect class="m" width="445.867" height="180.322" transform="translate(0 52.809)"/><g class="n" transform="translate(197.291 205.944)"><path class="o" d="M3.22,5.152a.608.608,0,0,0,.644.644H6.44a.645.645,0,0,0,.644-.644.608.608,0,0,0-.644-.644H3.864A.645.645,0,0,0,3.22,5.152ZM0,3.22A3.189,3.189,0,0,1,3.22,0H7.084A3.189,3.189,0,0,1,10.3,3.22V9.66a.608.608,0,0,1-.644.644H3.22A3.189,3.189,0,0,1,0,7.084Z"/></g><text class="p" transform="translate(30.912 214.023)"><tspan x="0" y="0">Like</tspan></text><text class="p" transform="translate(210.98 214.023)"><tspan x="0" y="0">Comment</tspan></text><text class="p" transform="translate(400.142 214.023)"><tspan x="0" y="0">Share</tspan></text><rect class="q" width="445.867" height="52.809"/><g transform="translate(15.456 15.456)"><text class="r" transform="translate(30.912 6)"><tspan x="0" y="0">Name Surname</tspan></text><text class="s" transform="translate(30.912 17.168)"><tspan x="0" y="0">San Francisco</tspan></text><g class="t" transform="translate(0 0.644)"><circle class="u" cx="12.88" cy="12.88" r="12.88"/><path class="e" d="M0,10.3V9.016C0,7.6,2.318,6.44,5.152,6.44S10.3,7.6,10.3,9.016V10.3ZM2.576,2.576A2.576,2.576,0,1,1,5.152,5.152,2.576,2.576,0,0,1,2.576,2.576Z" transform="translate(7.728 7.728)"/></g></g></g><g class="n" transform="translate(0 208.078)"><rect class="a" width="10.304" height="10.304"/><path class="o" d="M0,9.219V3.8L3.254,0h0A1.082,1.082,0,0,1,4.23,1.519L3.254,3.8H7.376A1.1,1.1,0,0,1,8.46,5.044L7.755,9.382a1.1,1.1,0,0,1-1.085.922H1.085A1.088,1.088,0,0,1,0,9.219Z" transform="translate(0.644)"/></g></g><path class="v" d="M9.456,7.348V5l4.108,4.108L9.456,13.217V10.811c-2.935,0-4.989.939-6.456,2.993C3.587,10.869,5.348,7.935,9.456,7.348Z" transform="translate(717.756 262.818)"/><path class="w" d="M45.4,28.582c.514-1.66,2.192-7.443,2.192-9.574v-7.4a1.786,1.786,0,1,0-3.571,0v3.156a.336.336,0,1,1-.672,0V9.831a1.786,1.786,0,1,0-3.571,0v3.516a.336.336,0,1,1-.672,0V8.416a1.786,1.786,0,1,0-3.571,0v3.517a.336.336,0,0,1-.672,0V1.808a1.786,1.786,0,1,0-3.572,0V17.486a.336.336,0,0,1-.589.221l-4.182-4.784-.049-.051a1.809,1.809,0,0,0-1.238-.5h-.012a1.784,1.784,0,0,0-1.253.516c-.412.412-.735,1.2.069,2.613,1.221,2.144,2.555,4.177,3.737,5.978.879,1.34,1.709,2.6,2.328,3.672.4.683,1.221,2.476,1.677,3.426H45.4Z" transform="translate(721.537 281.548)"/></g></svg>