<svg xmlns="http://www.w3.org/2000/svg" width="276.26" height="243.876" viewBox="0 0 276.26 243.876">
  <g id="Group_3019" data-name="Group 3019" transform="translate(-559 -188)">
    <g id="Group_3013" data-name="Group 3013" transform="translate(559 188)">
      <g id="Group_2877" data-name="Group 2877" transform="translate(0 83.856)" style="mix-blend-mode: multiply;isolation: isolate">
        <path id="Path_1867" data-name="Path 1867" d="M276.573,252.593l-138.58-80.009L.313,252.6,138.894,332.6Z" transform="translate(-0.313 -172.585)" fill="#fff" opacity="0"/>
        <path id="Path_1868" data-name="Path 1868" d="M276.558,252.6,138.017,172.615.376,252.6,138.917,332.59Z" transform="translate(-0.337 -172.596)" fill="#fefefe" opacity="0.01"/>
        <path id="Path_1869" data-name="Path 1869" d="M276.543,252.609l-138.5-79.964L.439,252.611l138.5,79.964Z" transform="translate(-0.361 -172.608)" fill="#fdfdfd" opacity="0.02"/>
        <path id="Path_1870" data-name="Path 1870" d="M276.529,252.617,138.065,172.676.5,252.619l138.463,79.942Z" transform="translate(-0.385 -172.619)" fill="#fcfcfc" opacity="0.03"/>
        <path id="Path_1871" data-name="Path 1871" d="M276.514,252.625,138.089,172.706.564,252.627l138.425,79.919Z" transform="translate(-0.409 -172.631)" fill="#fbfbfb" opacity="0.04"/>
        <path id="Path_1872" data-name="Path 1872" d="M276.5,252.633l-138.386-79.9L.627,252.635l138.386,79.9Z" transform="translate(-0.433 -172.642)" fill="#fafafa" opacity="0.05"/>
        <path id="Path_1873" data-name="Path 1873" d="M276.484,252.641,138.137,172.767.689,252.643l138.347,79.875Z" transform="translate(-0.457 -172.654)" fill="#f9f9f9" opacity="0.059"/>
        <path id="Path_1874" data-name="Path 1874" d="M276.469,252.649,138.161,172.8.752,252.65,139.06,332.5Z" transform="translate(-0.481 -172.666)" fill="#f8f8f8" opacity="0.069"/>
        <path id="Path_1875" data-name="Path 1875" d="M276.454,252.657,138.185,172.827.815,252.658l138.269,79.83Z" transform="translate(-0.505 -172.677)" fill="#f7f7f7" opacity="0.079"/>
        <path id="Path_1876" data-name="Path 1876" d="M276.439,252.665l-138.23-79.807L.877,252.666l138.23,79.807Z" transform="translate(-0.529 -172.689)" fill="#f6f6f6" opacity="0.089"/>
        <path id="Path_1877" data-name="Path 1877" d="M276.425,252.672,138.233,172.888.94,252.674l138.191,79.785Z" transform="translate(-0.552 -172.7)" fill="#f5f5f5" opacity="0.099"/>
        <path id="Path_1878" data-name="Path 1878" d="M276.41,252.68,138.257,172.918,1,252.682l138.152,79.762Z" transform="translate(-0.576 -172.712)" fill="#f4f4f4" opacity="0.109"/>
        <path id="Path_1879" data-name="Path 1879" d="M276.395,252.688l-138.114-79.74L1.065,252.69l138.114,79.74Z" transform="translate(-0.6 -172.723)" fill="#f3f3f3" opacity="0.119"/>
        <path id="Path_1880" data-name="Path 1880" d="M276.38,252.7,138.305,172.979,1.128,252.7,139.2,332.415Z" transform="translate(-0.624 -172.735)" fill="#f2f2f2" opacity="0.129"/>
        <path id="Path_1881" data-name="Path 1881" d="M276.365,252.7,138.329,173.009,1.191,252.706,139.226,332.4Z" transform="translate(-0.648 -172.747)" fill="#f1f1f1" opacity="0.139"/>
        <path id="Path_1882" data-name="Path 1882" d="M276.35,252.712l-138-79.672L1.253,252.714l138,79.672Z" transform="translate(-0.672 -172.758)" fill="#f0f0f0" opacity="0.149"/>
        <path id="Path_1883" data-name="Path 1883" d="M276.335,252.72,138.377,173.07,1.316,252.722l137.958,79.65Z" transform="translate(-0.696 -172.77)" fill="#efefef" opacity="0.158"/>
        <path id="Path_1884" data-name="Path 1884" d="M276.321,252.728,138.4,173.1,1.379,252.729,139.3,332.357Z" transform="translate(-0.72 -172.781)" fill="#efefef" opacity="0.168"/>
        <path id="Path_1885" data-name="Path 1885" d="M276.306,252.736l-137.88-79.6L1.441,252.737l137.88,79.605Z" transform="translate(-0.744 -172.793)" fill="#eee" opacity="0.178"/>
        <path id="Path_1886" data-name="Path 1886" d="M276.291,252.744,138.45,173.161,1.5,252.745l137.841,79.583Z" transform="translate(-0.768 -172.805)" fill="#ededed" opacity="0.188"/>
        <path id="Path_1887" data-name="Path 1887" d="M276.276,252.752l-137.8-79.56L1.567,252.753l137.8,79.56Z" transform="translate(-0.792 -172.816)" fill="#ececec" opacity="0.198"/>
        <path id="Path_1888" data-name="Path 1888" d="M276.261,252.759,138.5,173.222,1.629,252.761,139.393,332.3Z" transform="translate(-0.815 -172.828)" fill="#ebebeb" opacity="0.208"/>
        <path id="Path_1889" data-name="Path 1889" d="M276.246,252.767,138.522,173.252,1.692,252.769l137.725,79.515Z" transform="translate(-0.839 -172.839)" fill="#eaeaea" opacity="0.218"/>
        <path id="Path_1890" data-name="Path 1890" d="M276.231,252.775,138.546,173.283,1.755,252.777,139.44,332.27Z" transform="translate(-0.863 -172.851)" fill="#e9e9e9" opacity="0.228"/>
        <path id="Path_1891" data-name="Path 1891" d="M276.217,252.783,138.57,173.313,1.817,252.785l137.647,79.47Z" transform="translate(-0.887 -172.862)" fill="#e8e8e8" opacity="0.238"/>
        <path id="Path_1892" data-name="Path 1892" d="M276.2,252.791,138.594,173.343,1.88,252.793l137.608,79.448Z" transform="translate(-0.911 -172.874)" fill="#e7e7e7" opacity="0.248"/>
        <path id="Path_1893" data-name="Path 1893" d="M276.187,252.8,138.618,173.374,1.943,252.8l137.569,79.425Z" transform="translate(-0.935 -172.886)" fill="#e6e6e6" opacity="0.257"/>
        <path id="Path_1894" data-name="Path 1894" d="M276.172,252.807l-137.53-79.4L2.005,252.808l137.53,79.4Z" transform="translate(-0.959 -172.897)" fill="#e5e5e5" opacity="0.267"/>
        <path id="Path_1895" data-name="Path 1895" d="M276.157,252.815l-137.491-79.38L2.068,252.816,139.559,332.2Z" transform="translate(-0.983 -172.909)" fill="#e4e4e4" opacity="0.277"/>
        <path id="Path_1896" data-name="Path 1896" d="M276.142,252.823,138.69,173.465,2.131,252.824l137.452,79.358Z" transform="translate(-1.007 -172.92)" fill="#e3e3e3" opacity="0.287"/>
        <path id="Path_1897" data-name="Path 1897" d="M276.128,252.831,138.714,173.495,2.193,252.832l137.414,79.336Z" transform="translate(-1.031 -172.932)" fill="#e2e2e2" opacity="0.297"/>
        <path id="Path_1898" data-name="Path 1898" d="M276.113,252.838,138.738,173.525,2.256,252.84l137.375,79.313Z" transform="translate(-1.054 -172.943)" fill="#e1e1e1" opacity="0.307"/>
        <path id="Path_1899" data-name="Path 1899" d="M276.1,252.846,138.762,173.556,2.319,252.848l137.336,79.291Z" transform="translate(-1.078 -172.955)" fill="#e0e0e0" opacity="0.317"/>
        <path id="Path_1900" data-name="Path 1900" d="M276.083,252.854l-137.3-79.268-136.4,79.27,137.3,79.268Z" transform="translate(-1.102 -172.967)" fill="#dfdfdf" opacity="0.327"/>
        <path id="Path_1901" data-name="Path 1901" d="M276.068,252.862,138.81,173.616,2.444,252.864,139.7,332.11Z" transform="translate(-1.126 -172.978)" fill="#dedede" opacity="0.337"/>
        <path id="Path_1902" data-name="Path 1902" d="M276.053,252.87,138.834,173.647,2.507,252.872,139.726,332.1Z" transform="translate(-1.15 -172.99)" fill="#ddd" opacity="0.347"/>
        <path id="Path_1903" data-name="Path 1903" d="M276.038,252.878l-137.18-79.2L2.569,252.88l137.18,79.2Z" transform="translate(-1.174 -173.001)" fill="#dcdcdc" opacity="0.356"/>
        <path id="Path_1904" data-name="Path 1904" d="M276.024,252.886,138.882,173.707,2.632,252.888l137.141,79.179Z" transform="translate(-1.198 -173.013)" fill="#dbdbdb" opacity="0.366"/>
        <path id="Path_1905" data-name="Path 1905" d="M276.009,252.894l-137.1-79.156L2.695,252.9l137.1,79.156Z" transform="translate(-1.222 -173.024)" fill="#dadada" opacity="0.376"/>
        <path id="Path_1906" data-name="Path 1906" d="M275.994,252.9,138.93,173.768,2.757,252.9l137.064,79.134Z" transform="translate(-1.246 -173.036)" fill="#d9d9d9" opacity="0.386"/>
        <path id="Path_1907" data-name="Path 1907" d="M275.979,252.91,138.954,173.8,2.82,252.911l137.025,79.111Z" transform="translate(-1.27 -173.048)" fill="#d8d8d8" opacity="0.396"/>
        <path id="Path_1908" data-name="Path 1908" d="M275.964,252.918,138.978,173.829l-136.1,79.09,136.986,79.089Z" transform="translate(-1.294 -173.059)" fill="#d7d7d7" opacity="0.406"/>
        <path id="Path_1909" data-name="Path 1909" d="M275.949,252.926,139,173.859,2.945,252.927l136.947,79.066Z" transform="translate(-1.317 -173.071)" fill="#d6d6d6" opacity="0.416"/>
        <path id="Path_1910" data-name="Path 1910" d="M275.934,252.933,139.026,173.89,3.008,252.935l136.908,79.044Z" transform="translate(-1.341 -173.082)" fill="#d5d5d5" opacity="0.426"/>
        <path id="Path_1911" data-name="Path 1911" d="M275.92,252.941,139.05,173.92,3.071,252.943,139.94,331.964Z" transform="translate(-1.365 -173.094)" fill="#d4d4d4" opacity="0.436"/>
        <path id="Path_1912" data-name="Path 1912" d="M275.9,252.949l-136.83-79-135.941,79,136.83,79Z" transform="translate(-1.389 -173.106)" fill="#d3d3d3" opacity="0.446"/>
        <path id="Path_1913" data-name="Path 1913" d="M275.89,252.957,139.1,173.981,3.2,252.959l136.791,78.977Z" transform="translate(-1.413 -173.117)" fill="#d2d2d2" opacity="0.455"/>
        <path id="Path_1914" data-name="Path 1914" d="M275.875,252.965,139.122,174.011,3.259,252.967l136.753,78.954Z" transform="translate(-1.437 -173.129)" fill="#d1d1d1" opacity="0.465"/>
        <path id="Path_1915" data-name="Path 1915" d="M275.86,252.973,139.146,174.041,3.321,252.974l136.714,78.932Z" transform="translate(-1.461 -173.14)" fill="#d0d0d0" opacity="0.475"/>
        <path id="Path_1916" data-name="Path 1916" d="M275.845,252.981,139.17,174.072,3.384,252.982l136.675,78.909Z" transform="translate(-1.485 -173.152)" fill="#cfcfcf" opacity="0.485"/>
        <path id="Path_1917" data-name="Path 1917" d="M275.83,252.989,139.194,174.1,3.447,252.99l136.636,78.887Z" transform="translate(-1.509 -173.163)" fill="#cecece" opacity="0.495"/>
        <path id="Path_1918" data-name="Path 1918" d="M275.816,253l-136.6-78.864L3.509,253l136.6,78.864Z" transform="translate(-1.533 -173.175)" fill="#cecece" opacity="0.505"/>
        <path id="Path_1919" data-name="Path 1919" d="M275.8,253,139.243,174.163,3.572,253.006,140.13,331.848Z" transform="translate(-1.557 -173.187)" fill="#cdcdcd" opacity="0.515"/>
        <path id="Path_1920" data-name="Path 1920" d="M275.786,253.012,139.267,174.193,3.635,253.014l136.519,78.819Z" transform="translate(-1.58 -173.198)" fill="#ccc" opacity="0.525"/>
        <path id="Path_1921" data-name="Path 1921" d="M275.771,253.02l-136.48-78.8L3.7,253.022l136.48,78.8Z" transform="translate(-1.604 -173.21)" fill="#cbcbcb" opacity="0.535"/>
        <path id="Path_1922" data-name="Path 1922" d="M275.756,253.028,139.315,174.254,3.76,253.03,140.2,331.8Z" transform="translate(-1.628 -173.221)" fill="#cacaca" opacity="0.545"/>
        <path id="Path_1923" data-name="Path 1923" d="M275.741,253.036l-136.4-78.752L3.823,253.038l136.4,78.752Z" transform="translate(-1.652 -173.233)" fill="#c9c9c9" opacity="0.554"/>
        <path id="Path_1924" data-name="Path 1924" d="M275.727,253.044l-136.364-78.73L3.885,253.046l136.364,78.73Z" transform="translate(-1.676 -173.244)" fill="#c8c8c8" opacity="0.564"/>
        <path id="Path_1925" data-name="Path 1925" d="M275.712,253.052,139.387,174.345,3.948,253.053l136.325,78.707Z" transform="translate(-1.7 -173.256)" fill="#c7c7c7" opacity="0.574"/>
        <path id="Path_1926" data-name="Path 1926" d="M275.7,253.06,139.411,174.375,4.011,253.061,140.3,331.746Z" transform="translate(-1.724 -173.268)" fill="#c6c6c6" opacity="0.584"/>
        <path id="Path_1927" data-name="Path 1927" d="M275.682,253.068,139.435,174.406,4.073,253.069,140.32,331.731Z" transform="translate(-1.748 -173.279)" fill="#c5c5c5" opacity="0.594"/>
        <path id="Path_1928" data-name="Path 1928" d="M275.667,253.076l-136.208-78.64L4.136,253.077l136.208,78.64Z" transform="translate(-1.772 -173.291)" fill="#c4c4c4" opacity="0.604"/>
        <path id="Path_1929" data-name="Path 1929" d="M275.652,253.084,139.483,174.466,4.2,253.085,140.368,331.7Z" transform="translate(-1.796 -173.302)" fill="#c3c3c3" opacity="0.614"/>
        <path id="Path_1930" data-name="Path 1930" d="M275.637,253.092,139.507,174.5,4.261,253.093l136.13,78.595Z" transform="translate(-1.819 -173.314)" fill="#c2c2c2" opacity="0.624"/>
        <path id="Path_1931" data-name="Path 1931" d="M275.623,253.1,139.531,174.527,4.324,253.1l136.092,78.572Z" transform="translate(-1.843 -173.326)" fill="#c1c1c1" opacity="0.634"/>
        <path id="Path_1932" data-name="Path 1932" d="M275.608,253.107l-136.053-78.55L4.387,253.109l136.053,78.55Z" transform="translate(-1.867 -173.337)" fill="silver" opacity="0.644"/>
        <path id="Path_1933" data-name="Path 1933" d="M275.593,253.115,139.579,174.588,4.449,253.117l136.014,78.528Z" transform="translate(-1.891 -173.349)" fill="#bfbfbf" opacity="0.653"/>
        <path id="Path_1934" data-name="Path 1934" d="M275.578,253.123,139.6,174.618,4.512,253.125,140.487,331.63Z" transform="translate(-1.915 -173.36)" fill="#bebebe" opacity="0.663"/>
        <path id="Path_1935" data-name="Path 1935" d="M275.563,253.131,139.627,174.648,4.575,253.132l135.936,78.483Z" transform="translate(-1.939 -173.372)" fill="#bdbdbd" opacity="0.673"/>
        <path id="Path_1936" data-name="Path 1936" d="M275.548,253.139l-135.9-78.46L4.637,253.14l135.9,78.46Z" transform="translate(-1.963 -173.383)" fill="#bcbcbc" opacity="0.683"/>
        <path id="Path_1937" data-name="Path 1937" d="M275.533,253.147,139.675,174.709,4.7,253.148l135.858,78.438Z" transform="translate(-1.987 -173.395)" fill="#bbb" opacity="0.693"/>
        <path id="Path_1938" data-name="Path 1938" d="M275.519,253.155,139.7,174.739,4.763,253.156l135.819,78.415Z" transform="translate(-2.011 -173.407)" fill="#bababa" opacity="0.703"/>
        <path id="Path_1939" data-name="Path 1939" d="M275.5,253.163,139.723,174.77,4.825,253.164l135.78,78.393Z" transform="translate(-2.035 -173.418)" fill="#b9b9b9" opacity="0.713"/>
        <path id="Path_1940" data-name="Path 1940" d="M275.489,253.171,139.747,174.8,4.888,253.172l135.742,78.37Z" transform="translate(-2.059 -173.43)" fill="#b8b8b8" opacity="0.723"/>
        <path id="Path_1941" data-name="Path 1941" d="M275.474,253.178l-135.7-78.348L4.951,253.18l135.7,78.348Z" transform="translate(-2.082 -173.441)" fill="#b7b7b7" opacity="0.733"/>
        <path id="Path_1942" data-name="Path 1942" d="M275.459,253.186,139.8,174.861,5.013,253.188l135.664,78.325Z" transform="translate(-2.106 -173.453)" fill="#b6b6b6" opacity="0.743"/>
        <path id="Path_1943" data-name="Path 1943" d="M275.444,253.194l-135.625-78.3L5.076,253.2,140.7,331.5Z" transform="translate(-2.13 -173.464)" fill="#b5b5b5" opacity="0.752"/>
        <path id="Path_1944" data-name="Path 1944" d="M275.43,253.2,139.843,174.921,5.139,253.2l135.586,78.281Z" transform="translate(-2.154 -173.476)" fill="#b4b4b4" opacity="0.762"/>
        <path id="Path_1945" data-name="Path 1945" d="M275.415,253.21,139.867,174.952,5.2,253.211,140.748,331.47Z" transform="translate(-2.178 -173.488)" fill="#b3b3b3" opacity="0.772"/>
        <path id="Path_1946" data-name="Path 1946" d="M275.4,253.218,139.891,174.982,5.264,253.219l135.508,78.236Z" transform="translate(-2.202 -173.499)" fill="#b2b2b2" opacity="0.782"/>
        <path id="Path_1947" data-name="Path 1947" d="M275.385,253.226,139.915,175.013,5.327,253.227,140.8,331.44Z" transform="translate(-2.226 -173.511)" fill="#b1b1b1" opacity="0.792"/>
        <path id="Path_1948" data-name="Path 1948" d="M275.37,253.234,139.939,175.043,5.389,253.235,140.82,331.426Z" transform="translate(-2.25 -173.522)" fill="#b0b0b0" opacity="0.802"/>
        <path id="Path_1949" data-name="Path 1949" d="M275.355,253.242,139.963,175.073,5.452,253.243l135.392,78.168Z" transform="translate(-2.274 -173.534)" fill="#afafaf" opacity="0.812"/>
        <path id="Path_1950" data-name="Path 1950" d="M275.34,253.25,139.988,175.1,5.515,253.251,140.867,331.4Z" transform="translate(-2.298 -173.546)" fill="#aeaeae" opacity="0.822"/>
        <path id="Path_1951" data-name="Path 1951" d="M275.326,253.258,140.012,175.134,5.577,253.259l135.314,78.123Z" transform="translate(-2.322 -173.557)" fill="#adadad" opacity="0.832"/>
        <path id="Path_1952" data-name="Path 1952" d="M275.311,253.265l-135.275-78.1-134.4,78.1,135.275,78.1Z" transform="translate(-2.345 -173.569)" fill="#adadad" opacity="0.842"/>
        <path id="Path_1953" data-name="Path 1953" d="M275.3,253.273,140.06,175.195,5.7,253.275l135.236,78.079Z" transform="translate(-2.369 -173.58)" fill="#acacac" opacity="0.851"/>
        <path id="Path_1954" data-name="Path 1954" d="M275.281,253.281l-135.2-78.056L5.765,253.283l135.2,78.056Z" transform="translate(-2.393 -173.592)" fill="#ababab" opacity="0.861"/>
        <path id="Path_1955" data-name="Path 1955" d="M275.266,253.289,140.108,175.255,5.828,253.29l135.158,78.034Z" transform="translate(-2.417 -173.603)" fill="#aaa" opacity="0.871"/>
        <path id="Path_1956" data-name="Path 1956" d="M275.251,253.3l-135.12-78.011L5.891,253.3,141.01,331.31Z" transform="translate(-2.441 -173.615)" fill="#a9a9a9" opacity="0.881"/>
        <path id="Path_1957" data-name="Path 1957" d="M275.236,253.3,140.156,175.316l-134.2,77.99,135.081,77.989Z" transform="translate(-2.465 -173.627)" fill="#a8a8a8" opacity="0.891"/>
        <path id="Path_1958" data-name="Path 1958" d="M275.222,253.313,140.18,175.346,6.016,253.314,141.058,331.28Z" transform="translate(-2.489 -173.638)" fill="#a7a7a7" opacity="0.901"/>
        <path id="Path_1959" data-name="Path 1959" d="M275.207,253.321l-135-77.944L6.079,253.322l135,77.944Z" transform="translate(-2.513 -173.65)" fill="#a6a6a6" opacity="0.911"/>
        <path id="Path_1960" data-name="Path 1960" d="M275.192,253.329,140.228,175.407,6.141,253.33l134.964,77.921Z" transform="translate(-2.537 -173.661)" fill="#a5a5a5" opacity="0.921"/>
        <path id="Path_1961" data-name="Path 1961" d="M275.177,253.337l-134.925-77.9L6.2,253.338l134.925,77.9Z" transform="translate(-2.561 -173.673)" fill="#a4a4a4" opacity="0.931"/>
        <path id="Path_1962" data-name="Path 1962" d="M275.162,253.345,140.276,175.468,6.267,253.346l134.886,77.876Z" transform="translate(-2.584 -173.684)" fill="#a3a3a3" opacity="0.941"/>
        <path id="Path_1963" data-name="Path 1963" d="M275.147,253.352,140.3,175.5,6.329,253.354l134.847,77.854Z" transform="translate(-2.608 -173.696)" fill="#a2a2a2" opacity="0.95"/>
        <path id="Path_1964" data-name="Path 1964" d="M275.132,253.36,140.324,175.528,6.392,253.362,141.2,331.193Z" transform="translate(-2.632 -173.708)" fill="#a1a1a1" opacity="0.96"/>
        <path id="Path_1965" data-name="Path 1965" d="M275.118,253.368l-134.77-77.809L6.455,253.369l134.77,77.809Z" transform="translate(-2.656 -173.719)" fill="#a0a0a0" opacity="0.97"/>
        <path id="Path_1966" data-name="Path 1966" d="M275.1,253.376,140.372,175.589,6.517,253.377l134.731,77.787Z" transform="translate(-2.68 -173.731)" fill="#9f9f9f" opacity="0.98"/>
        <path id="Path_1967" data-name="Path 1967" d="M275.088,253.384,140.4,175.62,6.58,253.385l134.692,77.764Z" transform="translate(-2.704 -173.742)" fill="#9e9e9e" opacity="0.99"/>
        <path id="Path_1968" data-name="Path 1968" d="M275.073,253.392,140.42,175.65,6.643,253.393,141.3,331.135Z" transform="translate(-2.728 -173.754)" fill="#dfdedf"/>
      </g>
      <path id="Path_1969" data-name="Path 1969" d="M139.762,120.861l.029-83.856L4.95,114.979V200.5Z" transform="translate(-2.082 -37.005)" fill="#a29bbc"/>
      <path id="Path_1970" data-name="Path 1970" d="M223.672,120.861l-.029-83.856,134.841,77.973V200.5Z" transform="translate(-85.513 -37.005)" fill="#191136"/>
    </g>
    <path id="Path_2170" data-name="Path 2170" d="M187.425,748.332c2.486,4.609,7.761,6.588,7.761,6.588s1.245-5.495-1.24-10.1-7.761-6.588-7.761-6.588S184.94,743.722,187.425,748.332Z" transform="translate(432.711 -379.392)" fill="#084b0d"/>
    <path id="Path_2171" data-name="Path 2171" d="M162.035,773.609c4.487,2.7,6.216,8.062,6.216,8.062s-5.547.985-10.035-1.714S152,771.894,152,771.894,157.547,770.909,162.035,773.609Z" transform="translate(459.81 -406.186)" fill="#21dc2e"/>
    <rect id="Rectangle_1707" data-name="Rectangle 1707" width="27.998" height="0.4" transform="translate(694.455 233.581)" fill="#f2f2f2"/>
    <rect id="Rectangle_1708" data-name="Rectangle 1708" width="0.4" height="3.7" transform="translate(714.454 233.881)" fill="#f2f2f2"/>
    <rect id="Rectangle_1709" data-name="Rectangle 1709" width="0.4" height="3.7" transform="translate(702.255 233.881)" fill="#f2f2f2"/>
    <rect id="Rectangle_1710" data-name="Rectangle 1710" width="27.998" height="0.4" transform="translate(708.654 252.78)" fill="#f2f2f2"/>
    <rect id="Rectangle_1711" data-name="Rectangle 1711" width="0.4" height="3.7" transform="translate(716.254 249.18)" fill="#f2f2f2"/>
    <rect id="Rectangle_1712" data-name="Rectangle 1712" width="0.4" height="3.7" transform="translate(728.453 249.18)" fill="#f2f2f2"/>
    <rect id="Rectangle_1713" data-name="Rectangle 1713" width="27.998" height="0.4" transform="translate(745.852 261.78)" fill="#f2f2f2"/>
    <rect id="Rectangle_1714" data-name="Rectangle 1714" width="0.4" height="3.7" transform="translate(753.452 258.18)" fill="#f2f2f2"/>
    <rect id="Rectangle_1715" data-name="Rectangle 1715" width="0.4" height="3.7" transform="translate(765.651 258.18)" fill="#f2f2f2"/>
    <rect id="Rectangle_1716" data-name="Rectangle 1716" width="27.998" height="0.4" transform="translate(743.052 354.575)" fill="#f2f2f2"/>
    <rect id="Rectangle_1717" data-name="Rectangle 1717" width="0.4" height="3.7" transform="translate(750.652 350.975)" fill="#f2f2f2"/>
    <rect id="Rectangle_1718" data-name="Rectangle 1718" width="0.4" height="3.7" transform="translate(762.851 350.975)" fill="#f2f2f2"/>
    <rect id="Rectangle_1719" data-name="Rectangle 1719" width="27.998" height="0.4" transform="translate(695.255 290.378)" fill="#f2f2f2"/>
    <rect id="Rectangle_1720" data-name="Rectangle 1720" width="0.4" height="3.7" transform="translate(702.855 286.778)" fill="#f2f2f2"/>
    <rect id="Rectangle_1721" data-name="Rectangle 1721" width="0.4" height="3.7" transform="translate(715.054 286.778)" fill="#f2f2f2"/>
    <rect id="Rectangle_1722" data-name="Rectangle 1722" width="27.998" height="0.4" transform="translate(704.055 338.575)" fill="#f2f2f2"/>
    <rect id="Rectangle_1723" data-name="Rectangle 1723" width="0.4" height="3.7" transform="translate(711.654 334.976)" fill="#f2f2f2"/>
    <rect id="Rectangle_1724" data-name="Rectangle 1724" width="0.4" height="3.7" transform="translate(723.853 334.976)" fill="#f2f2f2"/>
    <rect id="Rectangle_1725" data-name="Rectangle 1725" width="27.998" height="0.4" transform="translate(748.852 323.976)" fill="#f2f2f2"/>
    <rect id="Rectangle_1726" data-name="Rectangle 1726" width="0.4" height="3.7" transform="translate(756.452 320.376)" fill="#f2f2f2"/>
    <rect id="Rectangle_1727" data-name="Rectangle 1727" width="0.4" height="3.7" transform="translate(768.651 320.376)" fill="#f2f2f2"/>
    <path id="Path_2172" data-name="Path 2172" d="M172.629,616.713H125.274v-.341h47.014V599.85H129.255l-2.09-4.355.307-.147,2,4.162h43.159Z" transform="translate(511.59 -249.884)" fill="#2f2e41"/>
    <circle id="Ellipse_290" data-name="Ellipse 290" cx="3.577" cy="3.577" r="3.577" transform="translate(639.589 368.021)" fill="#3f3d56"/>
    <circle id="Ellipse_291" data-name="Ellipse 291" cx="3.577" cy="3.577" r="3.577" transform="translate(674.849 368.021)" fill="#3f3d56"/>
    <circle id="Ellipse_292" data-name="Ellipse 292" cx="2.214" cy="2.214" r="2.214" transform="translate(717.775 293.412)" fill="#3f3d56"/>
    <path id="Path_2173" data-name="Path 2173" d="M280.392,515.176H227.165l-11.517-37.645h76.6l-.07.221Zm-52.975-.341h52.725l11.646-36.964h-75.68Z" transform="translate(408.891 -170.832)" fill="#2f2e41"/>
    <path id="Path_2174" data-name="Path 2174" d="M139.127,446.4H92.376L82.26,413.015h67.284l-.061.2Z" transform="translate(546.001 -104.017)" fill="#f2f2f2"/>
    <path id="Path_2175" data-name="Path 2175" d="M450.147,350.455l-.329-.087,2.248-8.473h13.077v.341H452.328Z" transform="translate(251.951 -47.119)" fill="#2f2e41"/>
    <rect id="Rectangle_1728" data-name="Rectangle 1728" width="69.055" height="0.341" transform="translate(628.261 318.112)" fill="#2f2e41"/>
    <rect id="Rectangle_1729" data-name="Rectangle 1729" width="61.26" height="0.341" transform="translate(632.101 330.663)" fill="#2f2e41"/>
    <rect id="Rectangle_1730" data-name="Rectangle 1730" width="0.341" height="37.305" transform="translate(662.67 306.869)" fill="#2f2e41"/>
    <rect id="Rectangle_1731" data-name="Rectangle 1731" width="37.384" height="0.341" transform="matrix(0.065, -0.998, 0.998, 0.065, 675.818, 344.162)" fill="#2f2e41"/>
    <rect id="Rectangle_1732" data-name="Rectangle 1732" width="0.341" height="37.384" transform="translate(647.084 306.88) rotate(-3.729)" fill="#2f2e41"/>
    <rect id="Rectangle_1733" data-name="Rectangle 1733" width="179" transform="translate(612 376)" fill="#2f2e41"/>
    <path id="Path_2176" data-name="Path 2176" d="M747.411,135.614s2.924,8.321,1.124,9.6,6.072,11.734,6.072,11.734l9.445-2.56-5.172-8.747s-.675-8.747-.675-10.028S747.411,135.614,747.411,135.614Z" transform="translate(-16.525 103.16)" fill="#a0616a"/>
    <path id="Path_2177" data-name="Path 2177" d="M747.411,135.614s2.924,8.321,1.124,9.6,6.072,11.734,6.072,11.734l9.445-2.56-5.172-8.747s-.675-8.747-.675-10.028S747.411,135.614,747.411,135.614Z" transform="translate(-16.525 103.16)" opacity="0.1"/>
    <path id="Path_2181" data-name="Path 2181" d="M762.133,201.9s2.134,6.4,5.547,5.12l3.414-1.28,5.974,40.964s-4.694,6.827-11.521,2.56S762.133,201.9,762.133,201.9Z" transform="translate(-27.621 49.676)" fill="#6c63ff"/>
    <g id="Group_3016" data-name="Group 3016">
      <path id="Path_2178" data-name="Path 2178" d="M721.357,409.293s-.853,10.668,0,16.215,2.134,20.909,2.134,20.909,0,29.016,4.694,29.443,8.107.853,8.534-.853-2.134-2.56-.853-3.414,1.707-3.84,0-7.254,0-37.977,0-37.977l8.107,21.762s.853,17.922,1.707,20.482-.853,7.254,2.133,7.681,6.4-2.134,8.107-2.987-2.56-.853-1.707-1.28,3.414-1.707,2.56-2.134-1.707-20.909-1.707-20.909-2.347-43.737-5.334-45.444-4.907,1.233-4.907,1.233Z" transform="translate(4.622 -111.206)" fill="#2f2e41"/>
      <path id="Path_2179" data-name="Path 2179" d="M754.451,758.784V762.2s-3.84,9.279,0,9.279,6.827.962,6.827-.319V759.637Z" transform="translate(-20.792 -395.838)" fill="#2f2e41"/>
      <path id="Path_2180" data-name="Path 2180" d="M859.854,758.754v3.414s3.84,9.279,0,9.279-6.827.962-6.827-.318V759.607Z" transform="translate(-101.019 -395.814)" fill="#2f2e41"/>
      <circle id="Ellipse_293" data-name="Ellipse 293" cx="7.681" cy="7.681" r="7.681" transform="translate(729.179 229.6)" fill="#a0616a"/>
      <path id="Path_2182" data-name="Path 2182" d="M795.418,179.283l1.92-4.054s11.308,5.334,13.015,7.041a6.664,6.664,0,0,1,1.707,4.267L809.073,197.2s.853,23.469.853,24.322,2.987,5.547.853,3.84-2.56-3.414-4.267-.853a31.3,31.3,0,0,1-5.547,5.547Z" transform="translate(-54.932 71.013)" fill="#3f3d56"/>
      <path id="Path_2183" data-name="Path 2183" d="M840.088,349.122l-1.28,11.948s-7.681,6.827-5.974,7.254a2.362,2.362,0,0,0,2.56-1.28s2.987,2.987,4.694,1.28,5.974-17.922,5.974-17.922Z" transform="translate(-84.667 -68.103)" fill="#a0616a"/>
      <path id="Path_2184" data-name="Path 2184" d="M742.454,76.04c-1.7-.061-3.525-.091-4.961.827a7.263,7.263,0,0,0-1.714,1.678c-1.4,1.768-2.606,3.992-2.087,6.185l.6-.235a3.95,3.95,0,0,1-.381,1.692c.085-.247.369.152.293.4l-.664,2.18a2.052,2.052,0,0,1,2.617,1.562c.076-2.532.339-5.436,2.393-6.918a8.276,8.276,0,0,1,3.608-1.179,7.258,7.258,0,0,1,3.5.018,2.516,2.516,0,0,1,1.811,2.674,1.191,1.191,0,0,1,1.343.662,3.475,3.475,0,0,1,.275,1.591c.548.387,1.171-.382,1.394-1.014a9.155,9.155,0,0,0,.708-4.614,3.519,3.519,0,0,0-3.119-3.035,1.093,1.093,0,0,0,.284-.77l-1.3-.11a1.435,1.435,0,0,0,.857-.452C747.393,77.757,743.3,76.07,742.454,76.04Z" transform="translate(-5.431 150.386)" fill="#2f2e41"/>
      <path id="Path_2185" data-name="Path 2185" d="M706.178,176.278s-3.474-3.4-4.724-3.2-2.957,3.2-2.957,3.2-10.241,3.414-9.814,6.827,5.121,20.055,5.121,20.055,3.84,20.055.427,22.189,16.215,7.681,16.642,5.12,1.28-28.163,0-32S706.178,176.278,706.178,176.278Z" transform="translate(30.468 72.737)" fill="#3f3d56"/>
      <path id="Path_2186" data-name="Path 2186" d="M850.893,223.236h5.276s3.685,16.215,4.111,17.922,1.28,9.814.853,9.814-8.961-1.707-8.961-.427Z" transform="translate(-99.312 32.607)" fill="#3f3d56"/>
      <path id="Path_2187" data-name="Path 2187" d="M763.036,319.213h-20.2c-1.971-9.068-2.136-17.828,0-26.2h20.2C759.776,301.234,759.572,309.934,763.036,319.213Z" transform="translate(-11.633 -23.216)" fill="#f2f2f2"/>
      <path id="Path_2188" data-name="Path 2188" d="M707.938,353.171l5.974,2.56s11.521,1.707,11.521-2.987-11.521-2.134-11.521-2.134l-3.841-1.228Z" transform="translate(15.053 -68.312)" fill="#a0616a"/>
      <path id="Path_2189" data-name="Path 2189" d="M676.969,210.435l-5.12,1.28-3.84,22.615s-1.28,5.974.853,6.4,8.108,3.84,8.108,3.84.853-6.4,2.56-6.4l-4.267-3.414,2.56-14.935Z" transform="translate(47.302 42.848)" fill="#3f3d56"/>
    </g>
    <rect id="Rectangle_1734" data-name="Rectangle 1734" width="27.998" height="0.4" transform="translate(623.859 296.978)" fill="#f2f2f2"/>
    <rect id="Rectangle_1735" data-name="Rectangle 1735" width="0.4" height="3.7" transform="translate(631.459 293.378)" fill="#f2f2f2"/>
    <rect id="Rectangle_1736" data-name="Rectangle 1736" width="0.4" height="3.7" transform="translate(643.658 293.378)" fill="#f2f2f2"/>
    <rect id="Rectangle_1737" data-name="Rectangle 1737" width="27.998" height="0.4" transform="translate(633.659 237.781)" fill="#f2f2f2"/>
    <rect id="Rectangle_1738" data-name="Rectangle 1738" width="0.4" height="3.7" transform="translate(653.658 238.081)" fill="#f2f2f2"/>
    <rect id="Rectangle_1739" data-name="Rectangle 1739" width="0.4" height="3.7" transform="translate(641.458 238.081)" fill="#f2f2f2"/>
    <rect id="Rectangle_1740" data-name="Rectangle 1740" width="27.998" height="0.4" transform="translate(661.857 277.179)" fill="#f2f2f2"/>
    <rect id="Rectangle_1741" data-name="Rectangle 1741" width="0.4" height="3.7" transform="translate(681.856 277.479)" fill="#f2f2f2"/>
    <rect id="Rectangle_1742" data-name="Rectangle 1742" width="0.4" height="3.7" transform="translate(669.657 277.479)" fill="#f2f2f2"/>
    <rect id="Rectangle_1743" data-name="Rectangle 1743" width="27.998" height="0.4" transform="translate(614.26 276.979)" fill="#f2f2f2"/>
    <rect id="Rectangle_1744" data-name="Rectangle 1744" width="0.4" height="3.7" transform="translate(634.258 277.279)" fill="#f2f2f2"/>
    <rect id="Rectangle_1745" data-name="Rectangle 1745" width="0.4" height="3.7" transform="translate(622.059 277.279)" fill="#f2f2f2"/>
    <rect id="Rectangle_1746" data-name="Rectangle 1746" width="27.998" height="0.4" transform="translate(647.858 256.98)" fill="#f2f2f2"/>
    <rect id="Rectangle_1747" data-name="Rectangle 1747" width="0.4" height="3.7" transform="translate(655.457 253.38)" fill="#f2f2f2"/>
    <rect id="Rectangle_1748" data-name="Rectangle 1748" width="0.4" height="3.7" transform="translate(667.657 253.38)" fill="#f2f2f2"/>
  </g>
</svg>
