<svg xmlns="http://www.w3.org/2000/svg" width="17.905" height="13.411" viewBox="0 0 17.905 13.411">
    <defs>
        <style>
            .cls-1{fill:#2699fb}
        </style>
    </defs>
    <g id="planet-earth">
        <path id="Path_1614" d="M15.283 1.964A10.588 10.588 0 0 0 8.952 0a10.588 10.588 0 0 0-6.33 1.964A5.958 5.958 0 0 0 0 6.705a5.957 5.957 0 0 0 2.622 4.741 10.588 10.588 0 0 0 6.33 1.964 10.588 10.588 0 0 0 6.33-1.964A5.957 5.957 0 0 0 17.9 6.705a5.958 5.958 0 0 0-2.617-4.741zm1.863 3.373l-2.361-.5a.35.35 0 0 0-.269.05.179.179 0 0 0-.08.2l.192.638a.714.714 0 0 0 .424.428 1.145 1.145 0 0 0 .673.06v.318a.439.439 0 0 1-.25.371l-1.43.798-1.26-1.823a.331.331 0 0 0-.378-.09c-.137.053-.191.18-.12.283l1.278 1.847a1.621 1.621 0 0 0 1.412.594h.065l-.094.388-1.709 1.201a.219.219 0 0 0-.068.076l-1.268 2.4a1.759 1.759 0 0 1-.919-.114 1.116 1.116 0 0 1-.645-.615 1.743 1.743 0 0 1-.135-.473v-1.01a.221.221 0 0 0-.18-.2l-.3-.086a2.5 2.5 0 0 1-1.01-.551L8.2 9.051a.335.335 0 0 0-.267-.075l-2.074.277a1.068 1.068 0 0 1-.921-.293l-.218-.243a1.076 1.076 0 0 1-.1-1.382l.476-.687a.168.168 0 0 0 .031-.1l-.008-.259c-.007-.23.207-.425.509-.465l1.852-.247a1.548 1.548 0 0 1 .882.137l1.072.531a.362.362 0 0 0 .244.024l1.757-.44a.312.312 0 0 0 .1-.043l.254-.172a.742.742 0 0 0 .358-.607.747.747 0 0 0-.367-.607.353.353 0 0 0-.266-.044l-1.393.309-.863-.592a.726.726 0 0 0-.612-.081.457.457 0 0 0-.358.381L8.013 4.2a.3.3 0 0 0-.05-.027 1.489 1.489 0 0 0-1.372.125l-.437.3a.231.231 0 0 0-.056.054l-.431.593-.537-.112a.265.265 0 0 1-.23-.216l-.021-.3c-.009-.126.116-.236.284-.249l.532-.042a.244.244 0 0 0 .251-.209v-.525l1.078-.609a1.021 1.021 0 0 0 .312-.266l.367-.48a.167.167 0 0 0-.015-.227.331.331 0 0 0-.288-.084l-1.313.194v-.052a.636.636 0 0 1 .341-.534L8.151.493 9.3.987a.747.747 0 0 0 .445.042.575.575 0 0 0 .348-.209l.232-.32a9.544 9.544 0 0 1 4.562 1.757 6.03 6.03 0 0 1 2.259 3.08zm-8.214-.461l-.081-.489h.009a.019.019 0 0 1 .02 0l.98.672a.352.352 0 0 0 .269.046L11.5 4.8a.323.323 0 0 1 .082.211.355.355 0 0 1-.174.294l-.211.143-1.571.393-.958-.475a2.212 2.212 0 0 0-.978-.221 2.373 2.373 0 0 0-.311.02l-1.126.149.312-.43.4-.28a.779.779 0 0 1 .694-.075l.8.532a.357.357 0 0 0 .316.029.2.2 0 0 0 .157-.214zM9.108.421q.312 0 .619.025L9.6.618a.017.017 0 0 1-.01.007.023.023 0 0 1-.014 0zM3.019 11.15A5.584 5.584 0 0 1 .561 6.705a5.584 5.584 0 0 1 2.458-4.444A9.41 9.41 0 0 1 7.136.567l-1.06.64a1.026 1.026 0 0 0-.55.861v.307a.2.2 0 0 0 .1.162.352.352 0 0 0 .232.044l1.048-.154-.062.081a.535.535 0 0 1-.164.139l-1.189.672a.2.2 0 0 0-.111.168v.441l-.28.023c-.465.037-.809.34-.784.689l.021.3a.734.734 0 0 0 .642.6l.075.016a.834.834 0 0 0-.5.744l.006.206-.443.639a1.408 1.408 0 0 0 .136 1.809l.218.243a1.722 1.722 0 0 0 1.485.472l1.911-.256.414.384a3.087 3.087 0 0 0 1.245.679l.118.034v.868a1.83 1.83 0 0 0 .155.585 1.577 1.577 0 0 0 .911.869l.043.017a11.207 11.207 0 0 1-1.8.144 9.925 9.925 0 0 1-5.934-1.843zm11.868 0a8.8 8.8 0 0 1-2.267 1.212l1.05-1.987 1.73-1.221a.2.2 0 0 0 .084-.115l.175-.721a.176.176 0 0 0-.067-.178.333.333 0 0 0-.228-.069l-.425.022a1.173 1.173 0 0 1-.507-.085l1.378-.764a.839.839 0 0 0 .477-.709v-.608a.2.2 0 0 0-.116-.17.36.36 0 0 0-.252-.029l-.333.082a.409.409 0 0 1-.256-.019.255.255 0 0 1-.154-.155l-.089-.295 2.172.456a4.81 4.81 0 0 1 .087.909 5.585 5.585 0 0 1-2.46 4.444z" class="cls-1" data-name="Path 1614"/>
        <path id="Path_1615" d="M112.132 84.519l.308.142-.168.567c-.034.113.062.225.213.251a.371.371 0 0 0 .061.005.275.275 0 0 0 .273-.164l.211-.713a.193.193 0 0 0-.127-.224l-.478-.22a.339.339 0 0 0-.386.069.183.183 0 0 0 .093.287z" class="cls-1" data-name="Path 1615" transform="translate(-107.812 -81.775)"/>
        <path id="Path_1616" d="M276.947 127.164h.831a.347.347 0 0 0 .167-.041l.465-.258a.178.178 0 0 0 .059-.294.346.346 0 0 0-.392-.044l-.391.217h-.738c-.155 0-.28.094-.28.21s.124.21.279.21z" class="cls-1" data-name="Path 1616" transform="translate(-266.325 -122.945)"/>
        <path id="Path_1617" d="M327.51 99.522a.319.319 0 0 0 .227.086.346.346 0 0 0 .165-.04.179.179 0 0 0 .061-.293l-.766-.786a.345.345 0 0 0-.392-.046.179.179 0 0 0-.061.293z" class="cls-1" data-name="Path 1617" transform="translate(-314.479 -95.647)"/>
    </g>
</svg>
