<svg xmlns="http://www.w3.org/2000/svg" width="276.26" height="243.876" viewBox="0 0 276.26 243.876">
  <g id="Group_3018" data-name="Group 3018" transform="translate(-141 -192)">
    <g id="Group_2878" data-name="Group 2878" transform="translate(141 192)">
      <g id="Group_2877" data-name="Group 2877" transform="translate(0 83.856)" style="mix-blend-mode: multiply;isolation: isolate">
        <path id="Path_1867" data-name="Path 1867" d="M276.573,252.593l-138.58-80.009L.313,252.6,138.894,332.6Z" transform="translate(-0.313 -172.585)" fill="#fff" opacity="0"/>
        <path id="Path_1868" data-name="Path 1868" d="M276.558,252.6,138.017,172.615.376,252.6,138.917,332.59Z" transform="translate(-0.337 -172.596)" fill="#fefefe" opacity="0.01"/>
        <path id="Path_1869" data-name="Path 1869" d="M276.543,252.609l-138.5-79.964L.439,252.611l138.5,79.964Z" transform="translate(-0.361 -172.608)" fill="#fdfdfd" opacity="0.02"/>
        <path id="Path_1870" data-name="Path 1870" d="M276.529,252.617,138.065,172.676.5,252.619l138.463,79.942Z" transform="translate(-0.385 -172.619)" fill="#fcfcfc" opacity="0.03"/>
        <path id="Path_1871" data-name="Path 1871" d="M276.514,252.625,138.089,172.706.564,252.627l138.425,79.919Z" transform="translate(-0.409 -172.631)" fill="#fbfbfb" opacity="0.04"/>
        <path id="Path_1872" data-name="Path 1872" d="M276.5,252.633l-138.386-79.9L.627,252.635l138.386,79.9Z" transform="translate(-0.433 -172.642)" fill="#fafafa" opacity="0.05"/>
        <path id="Path_1873" data-name="Path 1873" d="M276.484,252.641,138.137,172.767.689,252.643l138.347,79.875Z" transform="translate(-0.457 -172.654)" fill="#f9f9f9" opacity="0.059"/>
        <path id="Path_1874" data-name="Path 1874" d="M276.469,252.649,138.161,172.8.752,252.65,139.06,332.5Z" transform="translate(-0.481 -172.666)" fill="#f8f8f8" opacity="0.069"/>
        <path id="Path_1875" data-name="Path 1875" d="M276.454,252.657,138.185,172.827.815,252.658l138.269,79.83Z" transform="translate(-0.505 -172.677)" fill="#f7f7f7" opacity="0.079"/>
        <path id="Path_1876" data-name="Path 1876" d="M276.439,252.665l-138.23-79.807L.877,252.666l138.23,79.807Z" transform="translate(-0.529 -172.689)" fill="#f6f6f6" opacity="0.089"/>
        <path id="Path_1877" data-name="Path 1877" d="M276.425,252.672,138.233,172.888.94,252.674l138.191,79.785Z" transform="translate(-0.552 -172.7)" fill="#f5f5f5" opacity="0.099"/>
        <path id="Path_1878" data-name="Path 1878" d="M276.41,252.68,138.257,172.918,1,252.682l138.152,79.762Z" transform="translate(-0.576 -172.712)" fill="#f4f4f4" opacity="0.109"/>
        <path id="Path_1879" data-name="Path 1879" d="M276.395,252.688l-138.114-79.74L1.065,252.69l138.114,79.74Z" transform="translate(-0.6 -172.723)" fill="#f3f3f3" opacity="0.119"/>
        <path id="Path_1880" data-name="Path 1880" d="M276.38,252.7,138.305,172.979,1.128,252.7,139.2,332.415Z" transform="translate(-0.624 -172.735)" fill="#f2f2f2" opacity="0.129"/>
        <path id="Path_1881" data-name="Path 1881" d="M276.365,252.7,138.329,173.009,1.191,252.706,139.226,332.4Z" transform="translate(-0.648 -172.747)" fill="#f1f1f1" opacity="0.139"/>
        <path id="Path_1882" data-name="Path 1882" d="M276.35,252.712l-138-79.672L1.253,252.714l138,79.672Z" transform="translate(-0.672 -172.758)" fill="#f0f0f0" opacity="0.149"/>
        <path id="Path_1883" data-name="Path 1883" d="M276.335,252.72,138.377,173.07,1.316,252.722l137.958,79.65Z" transform="translate(-0.696 -172.77)" fill="#efefef" opacity="0.158"/>
        <path id="Path_1884" data-name="Path 1884" d="M276.321,252.728,138.4,173.1,1.379,252.729,139.3,332.357Z" transform="translate(-0.72 -172.781)" fill="#efefef" opacity="0.168"/>
        <path id="Path_1885" data-name="Path 1885" d="M276.306,252.736l-137.88-79.6L1.441,252.737l137.88,79.605Z" transform="translate(-0.744 -172.793)" fill="#eee" opacity="0.178"/>
        <path id="Path_1886" data-name="Path 1886" d="M276.291,252.744,138.45,173.161,1.5,252.745l137.841,79.583Z" transform="translate(-0.768 -172.805)" fill="#ededed" opacity="0.188"/>
        <path id="Path_1887" data-name="Path 1887" d="M276.276,252.752l-137.8-79.56L1.567,252.753l137.8,79.56Z" transform="translate(-0.792 -172.816)" fill="#ececec" opacity="0.198"/>
        <path id="Path_1888" data-name="Path 1888" d="M276.261,252.759,138.5,173.222,1.629,252.761,139.393,332.3Z" transform="translate(-0.815 -172.828)" fill="#ebebeb" opacity="0.208"/>
        <path id="Path_1889" data-name="Path 1889" d="M276.246,252.767,138.522,173.252,1.692,252.769l137.725,79.515Z" transform="translate(-0.839 -172.839)" fill="#eaeaea" opacity="0.218"/>
        <path id="Path_1890" data-name="Path 1890" d="M276.231,252.775,138.546,173.283,1.755,252.777,139.44,332.27Z" transform="translate(-0.863 -172.851)" fill="#e9e9e9" opacity="0.228"/>
        <path id="Path_1891" data-name="Path 1891" d="M276.217,252.783,138.57,173.313,1.817,252.785l137.647,79.47Z" transform="translate(-0.887 -172.862)" fill="#e8e8e8" opacity="0.238"/>
        <path id="Path_1892" data-name="Path 1892" d="M276.2,252.791,138.594,173.343,1.88,252.793l137.608,79.448Z" transform="translate(-0.911 -172.874)" fill="#e7e7e7" opacity="0.248"/>
        <path id="Path_1893" data-name="Path 1893" d="M276.187,252.8,138.618,173.374,1.943,252.8l137.569,79.425Z" transform="translate(-0.935 -172.886)" fill="#e6e6e6" opacity="0.257"/>
        <path id="Path_1894" data-name="Path 1894" d="M276.172,252.807l-137.53-79.4L2.005,252.808l137.53,79.4Z" transform="translate(-0.959 -172.897)" fill="#e5e5e5" opacity="0.267"/>
        <path id="Path_1895" data-name="Path 1895" d="M276.157,252.815l-137.491-79.38L2.068,252.816,139.559,332.2Z" transform="translate(-0.983 -172.909)" fill="#e4e4e4" opacity="0.277"/>
        <path id="Path_1896" data-name="Path 1896" d="M276.142,252.823,138.69,173.465,2.131,252.824l137.452,79.358Z" transform="translate(-1.007 -172.92)" fill="#e3e3e3" opacity="0.287"/>
        <path id="Path_1897" data-name="Path 1897" d="M276.128,252.831,138.714,173.495,2.193,252.832l137.414,79.336Z" transform="translate(-1.031 -172.932)" fill="#e2e2e2" opacity="0.297"/>
        <path id="Path_1898" data-name="Path 1898" d="M276.113,252.838,138.738,173.525,2.256,252.84l137.375,79.313Z" transform="translate(-1.054 -172.943)" fill="#e1e1e1" opacity="0.307"/>
        <path id="Path_1899" data-name="Path 1899" d="M276.1,252.846,138.762,173.556,2.319,252.848l137.336,79.291Z" transform="translate(-1.078 -172.955)" fill="#e0e0e0" opacity="0.317"/>
        <path id="Path_1900" data-name="Path 1900" d="M276.083,252.854l-137.3-79.268-136.4,79.27,137.3,79.268Z" transform="translate(-1.102 -172.967)" fill="#dfdfdf" opacity="0.327"/>
        <path id="Path_1901" data-name="Path 1901" d="M276.068,252.862,138.81,173.616,2.444,252.864,139.7,332.11Z" transform="translate(-1.126 -172.978)" fill="#dedede" opacity="0.337"/>
        <path id="Path_1902" data-name="Path 1902" d="M276.053,252.87,138.834,173.647,2.507,252.872,139.726,332.1Z" transform="translate(-1.15 -172.99)" fill="#ddd" opacity="0.347"/>
        <path id="Path_1903" data-name="Path 1903" d="M276.038,252.878l-137.18-79.2L2.569,252.88l137.18,79.2Z" transform="translate(-1.174 -173.001)" fill="#dcdcdc" opacity="0.356"/>
        <path id="Path_1904" data-name="Path 1904" d="M276.024,252.886,138.882,173.707,2.632,252.888l137.141,79.179Z" transform="translate(-1.198 -173.013)" fill="#dbdbdb" opacity="0.366"/>
        <path id="Path_1905" data-name="Path 1905" d="M276.009,252.894l-137.1-79.156L2.695,252.9l137.1,79.156Z" transform="translate(-1.222 -173.024)" fill="#dadada" opacity="0.376"/>
        <path id="Path_1906" data-name="Path 1906" d="M275.994,252.9,138.93,173.768,2.757,252.9l137.064,79.134Z" transform="translate(-1.246 -173.036)" fill="#d9d9d9" opacity="0.386"/>
        <path id="Path_1907" data-name="Path 1907" d="M275.979,252.91,138.954,173.8,2.82,252.911l137.025,79.111Z" transform="translate(-1.27 -173.048)" fill="#d8d8d8" opacity="0.396"/>
        <path id="Path_1908" data-name="Path 1908" d="M275.964,252.918,138.978,173.829l-136.1,79.09,136.986,79.089Z" transform="translate(-1.294 -173.059)" fill="#d7d7d7" opacity="0.406"/>
        <path id="Path_1909" data-name="Path 1909" d="M275.949,252.926,139,173.859,2.945,252.927l136.947,79.066Z" transform="translate(-1.317 -173.071)" fill="#d6d6d6" opacity="0.416"/>
        <path id="Path_1910" data-name="Path 1910" d="M275.934,252.933,139.026,173.89,3.008,252.935l136.908,79.044Z" transform="translate(-1.341 -173.082)" fill="#d5d5d5" opacity="0.426"/>
        <path id="Path_1911" data-name="Path 1911" d="M275.92,252.941,139.05,173.92,3.071,252.943,139.94,331.964Z" transform="translate(-1.365 -173.094)" fill="#d4d4d4" opacity="0.436"/>
        <path id="Path_1912" data-name="Path 1912" d="M275.9,252.949l-136.83-79-135.941,79,136.83,79Z" transform="translate(-1.389 -173.106)" fill="#d3d3d3" opacity="0.446"/>
        <path id="Path_1913" data-name="Path 1913" d="M275.89,252.957,139.1,173.981,3.2,252.959l136.791,78.977Z" transform="translate(-1.413 -173.117)" fill="#d2d2d2" opacity="0.455"/>
        <path id="Path_1914" data-name="Path 1914" d="M275.875,252.965,139.122,174.011,3.259,252.967l136.753,78.954Z" transform="translate(-1.437 -173.129)" fill="#d1d1d1" opacity="0.465"/>
        <path id="Path_1915" data-name="Path 1915" d="M275.86,252.973,139.146,174.041,3.321,252.974l136.714,78.932Z" transform="translate(-1.461 -173.14)" fill="#d0d0d0" opacity="0.475"/>
        <path id="Path_1916" data-name="Path 1916" d="M275.845,252.981,139.17,174.072,3.384,252.982l136.675,78.909Z" transform="translate(-1.485 -173.152)" fill="#cfcfcf" opacity="0.485"/>
        <path id="Path_1917" data-name="Path 1917" d="M275.83,252.989,139.194,174.1,3.447,252.99l136.636,78.887Z" transform="translate(-1.509 -173.163)" fill="#cecece" opacity="0.495"/>
        <path id="Path_1918" data-name="Path 1918" d="M275.816,253l-136.6-78.864L3.509,253l136.6,78.864Z" transform="translate(-1.533 -173.175)" fill="#cecece" opacity="0.505"/>
        <path id="Path_1919" data-name="Path 1919" d="M275.8,253,139.243,174.163,3.572,253.006,140.13,331.848Z" transform="translate(-1.557 -173.187)" fill="#cdcdcd" opacity="0.515"/>
        <path id="Path_1920" data-name="Path 1920" d="M275.786,253.012,139.267,174.193,3.635,253.014l136.519,78.819Z" transform="translate(-1.58 -173.198)" fill="#ccc" opacity="0.525"/>
        <path id="Path_1921" data-name="Path 1921" d="M275.771,253.02l-136.48-78.8L3.7,253.022l136.48,78.8Z" transform="translate(-1.604 -173.21)" fill="#cbcbcb" opacity="0.535"/>
        <path id="Path_1922" data-name="Path 1922" d="M275.756,253.028,139.315,174.254,3.76,253.03,140.2,331.8Z" transform="translate(-1.628 -173.221)" fill="#cacaca" opacity="0.545"/>
        <path id="Path_1923" data-name="Path 1923" d="M275.741,253.036l-136.4-78.752L3.823,253.038l136.4,78.752Z" transform="translate(-1.652 -173.233)" fill="#c9c9c9" opacity="0.554"/>
        <path id="Path_1924" data-name="Path 1924" d="M275.727,253.044l-136.364-78.73L3.885,253.046l136.364,78.73Z" transform="translate(-1.676 -173.244)" fill="#c8c8c8" opacity="0.564"/>
        <path id="Path_1925" data-name="Path 1925" d="M275.712,253.052,139.387,174.345,3.948,253.053l136.325,78.707Z" transform="translate(-1.7 -173.256)" fill="#c7c7c7" opacity="0.574"/>
        <path id="Path_1926" data-name="Path 1926" d="M275.7,253.06,139.411,174.375,4.011,253.061,140.3,331.746Z" transform="translate(-1.724 -173.268)" fill="#c6c6c6" opacity="0.584"/>
        <path id="Path_1927" data-name="Path 1927" d="M275.682,253.068,139.435,174.406,4.073,253.069,140.32,331.731Z" transform="translate(-1.748 -173.279)" fill="#c5c5c5" opacity="0.594"/>
        <path id="Path_1928" data-name="Path 1928" d="M275.667,253.076l-136.208-78.64L4.136,253.077l136.208,78.64Z" transform="translate(-1.772 -173.291)" fill="#c4c4c4" opacity="0.604"/>
        <path id="Path_1929" data-name="Path 1929" d="M275.652,253.084,139.483,174.466,4.2,253.085,140.368,331.7Z" transform="translate(-1.796 -173.302)" fill="#c3c3c3" opacity="0.614"/>
        <path id="Path_1930" data-name="Path 1930" d="M275.637,253.092,139.507,174.5,4.261,253.093l136.13,78.595Z" transform="translate(-1.819 -173.314)" fill="#c2c2c2" opacity="0.624"/>
        <path id="Path_1931" data-name="Path 1931" d="M275.623,253.1,139.531,174.527,4.324,253.1l136.092,78.572Z" transform="translate(-1.843 -173.326)" fill="#c1c1c1" opacity="0.634"/>
        <path id="Path_1932" data-name="Path 1932" d="M275.608,253.107l-136.053-78.55L4.387,253.109l136.053,78.55Z" transform="translate(-1.867 -173.337)" fill="silver" opacity="0.644"/>
        <path id="Path_1933" data-name="Path 1933" d="M275.593,253.115,139.579,174.588,4.449,253.117l136.014,78.528Z" transform="translate(-1.891 -173.349)" fill="#bfbfbf" opacity="0.653"/>
        <path id="Path_1934" data-name="Path 1934" d="M275.578,253.123,139.6,174.618,4.512,253.125,140.487,331.63Z" transform="translate(-1.915 -173.36)" fill="#bebebe" opacity="0.663"/>
        <path id="Path_1935" data-name="Path 1935" d="M275.563,253.131,139.627,174.648,4.575,253.132l135.936,78.483Z" transform="translate(-1.939 -173.372)" fill="#bdbdbd" opacity="0.673"/>
        <path id="Path_1936" data-name="Path 1936" d="M275.548,253.139l-135.9-78.46L4.637,253.14l135.9,78.46Z" transform="translate(-1.963 -173.383)" fill="#bcbcbc" opacity="0.683"/>
        <path id="Path_1937" data-name="Path 1937" d="M275.533,253.147,139.675,174.709,4.7,253.148l135.858,78.438Z" transform="translate(-1.987 -173.395)" fill="#bbb" opacity="0.693"/>
        <path id="Path_1938" data-name="Path 1938" d="M275.519,253.155,139.7,174.739,4.763,253.156l135.819,78.415Z" transform="translate(-2.011 -173.407)" fill="#bababa" opacity="0.703"/>
        <path id="Path_1939" data-name="Path 1939" d="M275.5,253.163,139.723,174.77,4.825,253.164l135.78,78.393Z" transform="translate(-2.035 -173.418)" fill="#b9b9b9" opacity="0.713"/>
        <path id="Path_1940" data-name="Path 1940" d="M275.489,253.171,139.747,174.8,4.888,253.172l135.742,78.37Z" transform="translate(-2.059 -173.43)" fill="#b8b8b8" opacity="0.723"/>
        <path id="Path_1941" data-name="Path 1941" d="M275.474,253.178l-135.7-78.348L4.951,253.18l135.7,78.348Z" transform="translate(-2.082 -173.441)" fill="#b7b7b7" opacity="0.733"/>
        <path id="Path_1942" data-name="Path 1942" d="M275.459,253.186,139.8,174.861,5.013,253.188l135.664,78.325Z" transform="translate(-2.106 -173.453)" fill="#b6b6b6" opacity="0.743"/>
        <path id="Path_1943" data-name="Path 1943" d="M275.444,253.194l-135.625-78.3L5.076,253.2,140.7,331.5Z" transform="translate(-2.13 -173.464)" fill="#b5b5b5" opacity="0.752"/>
        <path id="Path_1944" data-name="Path 1944" d="M275.43,253.2,139.843,174.921,5.139,253.2l135.586,78.281Z" transform="translate(-2.154 -173.476)" fill="#b4b4b4" opacity="0.762"/>
        <path id="Path_1945" data-name="Path 1945" d="M275.415,253.21,139.867,174.952,5.2,253.211,140.748,331.47Z" transform="translate(-2.178 -173.488)" fill="#b3b3b3" opacity="0.772"/>
        <path id="Path_1946" data-name="Path 1946" d="M275.4,253.218,139.891,174.982,5.264,253.219l135.508,78.236Z" transform="translate(-2.202 -173.499)" fill="#b2b2b2" opacity="0.782"/>
        <path id="Path_1947" data-name="Path 1947" d="M275.385,253.226,139.915,175.013,5.327,253.227,140.8,331.44Z" transform="translate(-2.226 -173.511)" fill="#b1b1b1" opacity="0.792"/>
        <path id="Path_1948" data-name="Path 1948" d="M275.37,253.234,139.939,175.043,5.389,253.235,140.82,331.426Z" transform="translate(-2.25 -173.522)" fill="#b0b0b0" opacity="0.802"/>
        <path id="Path_1949" data-name="Path 1949" d="M275.355,253.242,139.963,175.073,5.452,253.243l135.392,78.168Z" transform="translate(-2.274 -173.534)" fill="#afafaf" opacity="0.812"/>
        <path id="Path_1950" data-name="Path 1950" d="M275.34,253.25,139.988,175.1,5.515,253.251,140.867,331.4Z" transform="translate(-2.298 -173.546)" fill="#aeaeae" opacity="0.822"/>
        <path id="Path_1951" data-name="Path 1951" d="M275.326,253.258,140.012,175.134,5.577,253.259l135.314,78.123Z" transform="translate(-2.322 -173.557)" fill="#adadad" opacity="0.832"/>
        <path id="Path_1952" data-name="Path 1952" d="M275.311,253.265l-135.275-78.1-134.4,78.1,135.275,78.1Z" transform="translate(-2.345 -173.569)" fill="#adadad" opacity="0.842"/>
        <path id="Path_1953" data-name="Path 1953" d="M275.3,253.273,140.06,175.195,5.7,253.275l135.236,78.079Z" transform="translate(-2.369 -173.58)" fill="#acacac" opacity="0.851"/>
        <path id="Path_1954" data-name="Path 1954" d="M275.281,253.281l-135.2-78.056L5.765,253.283l135.2,78.056Z" transform="translate(-2.393 -173.592)" fill="#ababab" opacity="0.861"/>
        <path id="Path_1955" data-name="Path 1955" d="M275.266,253.289,140.108,175.255,5.828,253.29l135.158,78.034Z" transform="translate(-2.417 -173.603)" fill="#aaa" opacity="0.871"/>
        <path id="Path_1956" data-name="Path 1956" d="M275.251,253.3l-135.12-78.011L5.891,253.3,141.01,331.31Z" transform="translate(-2.441 -173.615)" fill="#a9a9a9" opacity="0.881"/>
        <path id="Path_1957" data-name="Path 1957" d="M275.236,253.3,140.156,175.316l-134.2,77.99,135.081,77.989Z" transform="translate(-2.465 -173.627)" fill="#a8a8a8" opacity="0.891"/>
        <path id="Path_1958" data-name="Path 1958" d="M275.222,253.313,140.18,175.346,6.016,253.314,141.058,331.28Z" transform="translate(-2.489 -173.638)" fill="#a7a7a7" opacity="0.901"/>
        <path id="Path_1959" data-name="Path 1959" d="M275.207,253.321l-135-77.944L6.079,253.322l135,77.944Z" transform="translate(-2.513 -173.65)" fill="#a6a6a6" opacity="0.911"/>
        <path id="Path_1960" data-name="Path 1960" d="M275.192,253.329,140.228,175.407,6.141,253.33l134.964,77.921Z" transform="translate(-2.537 -173.661)" fill="#a5a5a5" opacity="0.921"/>
        <path id="Path_1961" data-name="Path 1961" d="M275.177,253.337l-134.925-77.9L6.2,253.338l134.925,77.9Z" transform="translate(-2.561 -173.673)" fill="#a4a4a4" opacity="0.931"/>
        <path id="Path_1962" data-name="Path 1962" d="M275.162,253.345,140.276,175.468,6.267,253.346l134.886,77.876Z" transform="translate(-2.584 -173.684)" fill="#a3a3a3" opacity="0.941"/>
        <path id="Path_1963" data-name="Path 1963" d="M275.147,253.352,140.3,175.5,6.329,253.354l134.847,77.854Z" transform="translate(-2.608 -173.696)" fill="#a2a2a2" opacity="0.95"/>
        <path id="Path_1964" data-name="Path 1964" d="M275.132,253.36,140.324,175.528,6.392,253.362,141.2,331.193Z" transform="translate(-2.632 -173.708)" fill="#a1a1a1" opacity="0.96"/>
        <path id="Path_1965" data-name="Path 1965" d="M275.118,253.368l-134.77-77.809L6.455,253.369l134.77,77.809Z" transform="translate(-2.656 -173.719)" fill="#a0a0a0" opacity="0.97"/>
        <path id="Path_1966" data-name="Path 1966" d="M275.1,253.376,140.372,175.589,6.517,253.377l134.731,77.787Z" transform="translate(-2.68 -173.731)" fill="#9f9f9f" opacity="0.98"/>
        <path id="Path_1967" data-name="Path 1967" d="M275.088,253.384,140.4,175.62,6.58,253.385l134.692,77.764Z" transform="translate(-2.704 -173.742)" fill="#9e9e9e" opacity="0.99"/>
        <path id="Path_1968" data-name="Path 1968" d="M275.073,253.392,140.42,175.65,6.643,253.393,141.3,331.135Z" transform="translate(-2.728 -173.754)" fill="#dfdedf"/>
      </g>
      <path id="Path_1969" data-name="Path 1969" d="M139.762,120.861l.029-83.856L4.95,114.979V200.5Z" transform="translate(-2.082 -37.005)" fill="#a29bbc"/>
      <path id="Path_1970" data-name="Path 1970" d="M223.672,120.861l-.029-83.856,134.841,77.973V200.5Z" transform="translate(-85.513 -37.005)" fill="#191136"/>
    </g>
    <g id="undraw_social_expert_07r8" transform="translate(163.842 231.543)">
      <path id="Path_1971" data-name="Path 1971" d="M361.229,567.728l-30.557,8.261,22.722-10.6a106.375,106.375,0,0,0-25.668-2.933c-2.8.011-5.552.121-8.239.323a169,169,0,0,1-22.635.177l-61.758,13.037,49.453-14.251a123.407,123.407,0,0,1-24.093-5.711q-2.05-.728-4.193-1.4l-99.114,31.989s41.384-22.4,69.959-37.787a178.026,178.026,0,0,0-17.888-.892c-47.444,0-79.278,9.575-79.278,32.219,0,8.943,37.95,29.169,48.132,35.908l68,38.964c17.286-8.882,121.094-64.291,121.094-74.872C367.162,571.521,374.811,572.576,361.229,567.728Z" transform="translate(-129.94 -454.326)" fill="#f0f0f0"/>
      <path id="Path_1972" data-name="Path 1972" d="M830.7,593.168a81.257,81.257,0,0,1,3.558,32A77.2,77.2,0,0,1,814.4,565.4,81.263,81.263,0,0,1,830.7,593.168Z" transform="translate(-640.683 -477.527)" fill="#62d2ae"/>
      <path id="Path_1973" data-name="Path 1973" d="M890.72,593.168a81.259,81.259,0,0,0-3.558,32A77.2,77.2,0,0,0,907.021,565.4,81.262,81.262,0,0,0,890.72,593.168Z" transform="translate(-693.587 -477.527)" fill="#6ec7aa"/>
      <path id="Path_1974" data-name="Path 1974" d="M873.36,584.3a81.262,81.262,0,0,1-6.047,31.625,77.2,77.2,0,0,1-1.331-62.965A81.26,81.26,0,0,1,873.36,584.3Z" transform="translate(-674.018 -468.481)" fill="#85fed7"/>
      <ellipse id="Ellipse_279" data-name="Ellipse 279" cx="1.702" cy="1.702" rx="1.702" ry="1.702" transform="translate(199.523 109.256)" fill="#6c63ff"/>
      <ellipse id="Ellipse_280" data-name="Ellipse 280" cx="0.946" cy="0.946" rx="0.946" ry="0.946" transform="translate(196.97 123.629)" fill="#6c63ff"/>
      <ellipse id="Ellipse_281" data-name="Ellipse 281" cx="0.946" cy="0.946" rx="0.946" ry="0.946" transform="translate(185.433 114.268)" fill="#3f3d56"/>
      <ellipse id="Ellipse_282" data-name="Ellipse 282" cx="0.946" cy="0.946" rx="0.946" ry="0.946" transform="translate(218.814 105.095)" fill="#3f3d56"/>
      <ellipse id="Ellipse_283" data-name="Ellipse 283" cx="0.946" cy="0.946" rx="0.946" ry="0.946" transform="translate(190.35 123.156)" fill="#3f3d56"/>
      <ellipse id="Ellipse_284" data-name="Ellipse 284" cx="0.946" cy="0.946" rx="0.946" ry="0.946" transform="translate(210.209 117.672)" fill="#3f3d56"/>
      <ellipse id="Ellipse_285" data-name="Ellipse 285" cx="0.946" cy="0.946" rx="0.946" ry="0.946" transform="translate(182.323 126.552)" fill="#3f3d56"/>
      <ellipse id="Ellipse_286" data-name="Ellipse 286" cx="0.946" cy="0.946" rx="0.946" ry="0.946" transform="translate(211.154 131.667)" fill="#3f3d56"/>
      <ellipse id="Ellipse_287" data-name="Ellipse 287" cx="0.946" cy="0.946" rx="0.946" ry="0.946" transform="translate(201.982 132.613)" fill="#6c63ff"/>
      <path id="Path_1975" data-name="Path 1975" d="M419.833,90.88h0a10.31,10.31,0,0,1,10.31,10.31v12.7h-20.62v-12.7A10.31,10.31,0,0,1,419.833,90.88Z" transform="translate(-304.381 -90.88)" fill="#060606"/>
      <path id="Path_1976" data-name="Path 1976" d="M462.522,310.436s-10.527-3.364-12.264-.326-.434,7.6,0,9.333,3.69,22.139,12.372,16.713S462.522,310.436,462.522,310.436Z" transform="translate(-366.931 -280.482)" fill="#3f3d56"/>
      <path id="Path_1977" data-name="Path 1977" d="M462.522,310.436s-10.527-3.364-12.264-.326-.434,7.6,0,9.333,3.69,22.139,12.372,16.713S462.522,310.436,462.522,310.436Z" transform="translate(-366.931 -280.482)" opacity="0.1"/>
      <path id="Path_1978" data-name="Path 1978" d="M458.815,321.569h-8.9s-4.621-2.171-1.985-5.535,12.4-.325,12.4-.325Z" transform="translate(-365.285 -284.561)" fill="#ffb6b6"/>
      <path id="Path_1979" data-name="Path 1979" d="M673.544,402.567l8.682,8.682s7.163-.868,8.682,1.736-10.419,2.822-10.419,2.822l-12.372-12.372Z" transform="translate(-525.968 -348.629)" fill="#ffb6b6"/>
      <path id="Path_1980" data-name="Path 1980" d="M464.779,491.639l-1.736,16.5s.651,9.333-3.256,14.977-7.38,28-7.38,28-4.558,10.636-.434,11.287,4.124-6.946,4.124-6.946l2.388-8.465s6.078-11.07,8.248-18.884c0,0,6.729-9.984,6.729-14.76s2.6-21.705,2.6-21.705Z" transform="translate(-367.56 -413.391)" fill="#ffb6b6"/>
      <path id="Path_1981" data-name="Path 1981" d="M552.8,500.387l3.907,20.186s.217,8.031,1.085,11.287c0,0,.434,11.721,1.953,16.5a96.779,96.779,0,0,1,2.6,11.938l-1.085,1.953,1.085,6.946,2.6,3.907,2.822-2.388-.651-13.457s1.3-19.969-.434-24.31l-1.085-24.961-.217-7.6Z" transform="translate(-442.125 -419.752)" fill="#ffb6b6"/>
      <path id="Path_1982" data-name="Path 1982" d="M507.333,313.571l-7.814,49.054s10.419-1.085,13.674,1.519,14.76,1.085,14.76,1.085l.577-45.118L524.7,311.4l-13.24-1.085Z" transform="translate(-403.385 -281.555)" fill="#6c63ff"/>
      <path id="Path_1983" data-name="Path 1983" d="M551.833,259.671s1.085,9.984,0,11.07,11.721,0,11.721,0-3.473-10.419-3.039-11.721S551.833,259.671,551.833,259.671Z" transform="translate(-441.373 -243.934)" fill="#ffb6b6"/>
      <path id="Path_1984" data-name="Path 1984" d="M551.833,259.671s1.085,9.984,0,11.07,11.721,0,11.721,0-3.473-10.419-3.039-11.721S551.833,259.671,551.833,259.671Z" transform="translate(-441.373 -243.934)" opacity="0.1"/>
      <path id="Path_1985" data-name="Path 1985" d="M546.781,278.868l-4.992-2.388s-2.6-.868-2.6.434-1.736,1.519-1.085,2.822,4.992,5.86,20.837,4.558a8.226,8.226,0,0,1,6.946,1.519s-1.953-4.992-11.287-11.287Z" transform="translate(-431.328 -255.535)" fill="#3f3d56"/>
      <path id="Path_1986" data-name="Path 1986" d="M454.3,289.637s-2.6,1.953-2.6,2.388-11.287,32.558-11.287,32.558-20.837,21.705-19.1,23.442,2.388,3.039,4.992,3.473c0,0,5.86,9.767,20.186,8.248L456.9,307.87l3.907-8.465s-1.085,35.6,1.953,35.6h3.907s.434,27.132,2.822,27.132,4.775-.868,4.558-1.953-.651-12.155-.651-12.155,6.078,3.256,6.078,1.3-2.17-17.8-2.17-17.8L476,293.761l-4.992-3.473Z" transform="translate(-346.444 -266.521)" fill="#3f3d56"/>
      <path id="Path_1987" data-name="Path 1987" d="M481.965,299.143H480.88a8.786,8.786,0,0,0-4.341.868l-15.194,1.953a6.424,6.424,0,0,1,5.426,5.643c.868,5.209,1.736,8.465,2.171,8.682s-2.388,16.279,2.6,18.45,8.465-1.736,9.767-7.6,5.86-25.612,5.86-25.612Z" transform="translate(-375.629 -273.422)" fill="#3f3d56"/>
      <path id="Path_1988" data-name="Path 1988" d="M608.622,303.157l4.341,3.473a8.639,8.639,0,0,0,2.822,5.209c2.6,2.388,12.589,19.752,12.155,20.186s-15.628,1.519-14.76,6.295-5.426,4.558-5.426,4.558L602.11,308.8Z" transform="translate(-477.976 -276.351)" fill="#3f3d56"/>
      <path id="Path_1989" data-name="Path 1989" d="M391.941,285.141l-14.4-14.1s-11.459-3.369-9.4-5.856,12.481,2.017,12.481,2.017l13.336,10.885-1.219,6.8a.47.47,0,0,1-.791.253Z" transform="translate(-307.678 -248.201)" fill="#ffb6b6"/>
      <path id="Path_1990" data-name="Path 1990" d="M441.239,712.945l-2.822,9.767s-2.388,7.659,2.822,8.31,4.124-3.69,4.124-3.69l.667-6.847s-4.046,3.224-4.357-1.029a15.419,15.419,0,0,1,1.628-7.922Z" transform="translate(-358.562 -573.272)" fill="#8f8e9c"/>
      <path id="Path_1991" data-name="Path 1991" d="M582.086,735.73l-.651-3.039h-1.3l-1.085-1.085s1.3-4.775.434-6.946-.434-4.558,1.953-4.775c0,0-1.519,6.512,2.171,9.984,0,0,3.389,1.967,3.214-.427l.042-2.708.868,3.569s.651,3.473,1.736,4.341.434,2.822-2.6,2.388A16.99,16.99,0,0,1,582.086,735.73Z" transform="translate(-461.207 -579.343)" fill="#8f8e9c"/>
      <ellipse id="Ellipse_288" data-name="Ellipse 288" cx="0.651" cy="0.651" rx="0.651" ry="0.651" transform="translate(113.824 31.039)" fill="#2f2e41"/>
      <ellipse id="Ellipse_289" data-name="Ellipse 289" cx="7.597" cy="7.597" rx="7.597" ry="7.597" transform="translate(107.747 3.473)" fill="#ffb6b6"/>
      <path id="Path_1992" data-name="Path 1992" d="M535.774,221.069l5.861-7.163s6.512,7.814,11.07,7.6l.868-4.558-4.341-4.341-5.426-1.3-5.209,1.085-4.288,4.349Z" transform="translate(-428.679 -209.565)" fill="#060606"/>
      <path id="Path_1993" data-name="Path 1993" d="M717.359,210.942a5.958,5.958,0,0,0-2.391,11.415,5.274,5.274,0,0,1,.1-1.367l.766-3.247a2.275,2.275,0,0,1-.192-.941c0-.883.511-1.543,1.149-1.543a.8.8,0,0,1,.8.894,12.89,12.89,0,0,1-.526,2.114.921.921,0,0,0,.942,1.146c1.128,0,1.888-1.449,1.888-3.168a2.23,2.23,0,0,0-2.479-2.282,2.823,2.823,0,0,0-2.934,2.854,1.717,1.717,0,0,0,.394,1.168.291.291,0,0,1,.085.332c-.029.109-.093.372-.122.479a.2.2,0,0,1-.3.149,2.3,2.3,0,0,1-1.221-2.277,3.943,3.943,0,0,1,4.258-3.721,3.561,3.561,0,0,1,3.771,3.412c0,2.338-1.3,4.082-3.216,4.082a1.71,1.71,0,0,1-1.455-.742s-.346,1.372-.42,1.638a4.951,4.951,0,0,1-.6,1.277,5.958,5.958,0,1,0,1.691-11.673Z" transform="translate(-557.439 -209.304)" fill="#fff"/>
      <path id="Path_1994" data-name="Path 1994" d="M317.709,115.27a5.206,5.206,0,0,1-1.479.407,2.584,2.584,0,0,0,1.133-1.426,5.116,5.116,0,0,1-1.636.625,2.574,2.574,0,0,0-4.455,1.761,2.52,2.52,0,0,0,.066.588,7.3,7.3,0,0,1-5.309-2.694,2.58,2.58,0,0,0,.8,3.441,2.515,2.515,0,0,1-1.17-.322v.032a2.577,2.577,0,0,0,2.067,2.527,2.593,2.593,0,0,1-.679.09,2.429,2.429,0,0,1-.484-.048,2.579,2.579,0,0,0,2.407,1.79,5.162,5.162,0,0,1-3.2,1.1,5.219,5.219,0,0,1-.614-.037,7.2,7.2,0,0,0,3.941,1.165,7.283,7.283,0,0,0,7.332-7.335c0-.112,0-.223-.008-.332A5.241,5.241,0,0,0,317.709,115.27Z" transform="translate(-270.665 -95.888)" fill="#fff"/>
      <path id="Path_1995" data-name="Path 1995" d="M727.96,362.06h-9.085a.564.564,0,0,0-.564.564v9.085a.564.564,0,0,0,.564.564h4.543V368.23H722.2v-1.489h1.221v-1.1a1.94,1.94,0,0,1,2.093-2.037c.564,0,1.17.043,1.311.061v1.378h-.939c-.641,0-.763.3-.763.75v.949h1.527l-.2,1.489H725.12v4.043h2.84a.564.564,0,0,0,.564-.564v-9.085A.564.564,0,0,0,727.96,362.06Z" transform="translate(-562.463 -319.178)" fill="#fff"/>
      <path id="Path_1996" data-name="Path 1996" d="M375.925,205.814a2.134,2.134,0,0,1,2.128,2.128V212.2a2.134,2.134,0,0,1-2.128,2.128H371.67a2.134,2.134,0,0,1-2.128-2.128v-4.255a2.134,2.134,0,0,1,2.128-2.128h4.255m0-.851H371.67a2.987,2.987,0,0,0-2.979,2.979V212.2a2.987,2.987,0,0,0,2.979,2.979h4.255A2.988,2.988,0,0,0,378.9,212.2v-4.255A2.987,2.987,0,0,0,375.925,204.963Z" transform="translate(-308.263 -204.957)" fill="#e7ffe8"/>
      <path id="Path_1997" data-name="Path 1997" d="M383.365,212.476a.637.637,0,1,1,.452-.186A.638.638,0,0,1,383.365,212.476Zm-2.766.426a1.7,1.7,0,1,1-1.7,1.7,1.7,1.7,0,0,1,1.7-1.7m0-.851a2.553,2.553,0,1,0,2.553,2.553,2.553,2.553,0,0,0-2.553-2.553Z" transform="translate(-315.065 -209.491)" fill="#fff"/>
      <path id="Path_1998" data-name="Path 1998" d="M804.774,284.96h-8.521a.833.833,0,0,0-.872.8v8.54a.9.9,0,0,0,.872.875h8.519a.853.853,0,0,0,.819-.875v-8.54a.783.783,0,0,0-.817-.8Zm-6.229,8.511h-1.463v-4.548h1.463Zm-.681-5.239h-.011a.8.8,0,1,1,.011,0Zm6.027,5.239h-1.463v-2.487c0-.6-.213-1-.742-1a.8.8,0,0,0-.75.54.987.987,0,0,0-.05.359v2.59h-1.463v-4.548h1.463v.633a1.481,1.481,0,0,1,1.319-.739c.96,0,1.686.633,1.686,2Z" transform="translate(-618.498 -263.12)" fill="#fff"/>
    </g>
  </g>
</svg>
