<svg xmlns="http://www.w3.org/2000/svg" xmlns:xlink="http://www.w3.org/1999/xlink" width="265.349" height="458.809" viewBox="0 0 265.349 458.809"><defs><style>.a{fill:none;}.b{fill:#fff;}.c{fill:#6b5e9a;opacity:0.7;}.d{fill:url(#a);}.e{fill:url(#b);}.f{fill:url(#c);}.g{fill:#24126a;}.h{fill:#5761d7;}.i{fill:#bcbeff;}.j{fill:#0b0244;}.j,.k{opacity:0.4;}.l{clip-path:url(#d);}.m{fill:url(#e);}.n{fill:url(#f);}.o{fill:url(#g);}.p{clip-path:url(#h);}.q{fill:url(#l);}.r{fill:url(#m);}.s{fill:url(#n);}.t{fill:#382263;font-size:20px;font-family:Tahoma;}</style><linearGradient id="a" x1="-45.447" y1="20.343" x2="-41.947" y2="19.786" gradientUnits="objectBoundingBox"><stop offset="0" stop-color="#5761d7"/><stop offset="0.178" stop-color="#5b65d8"/><stop offset="0.388" stop-color="#6a72de"/><stop offset="0.613" stop-color="#8188e8"/><stop offset="0.849" stop-color="#a2a6f5"/><stop offset="1" stop-color="#bcbeff"/></linearGradient><linearGradient id="b" x1="195.036" y1="334.74" x2="195.036" y2="333.739" gradientUnits="objectBoundingBox"><stop offset="0" stop-color="#c0bff6"/><stop offset="0.294" stop-color="#c4c3f6"/><stop offset="0.64" stop-color="#d2d2f9"/><stop offset="1" stop-color="#e9e9fd"/></linearGradient><linearGradient id="c" x1="64.267" y1="28.527" x2="64.267" y2="27.823" xlink:href="#b"/><clipPath id="d"><path class="a" d="M75.926,133.773l68.5,37.509V117.627Z" transform="translate(-75.926 -117.627)"/></clipPath><linearGradient id="e" x1="-0.377" y1="-0.609" x2="0.55" y2="0.418" xlink:href="#b"/><linearGradient id="f" x1="0.896" y1="1.355" x2="0.491" y2="0.354" xlink:href="#b"/><linearGradient id="g" x1="0.303" y1="0.372" x2="1.223" y2="0.869" xlink:href="#b"/><clipPath id="h"><path class="a" d="M103.975,129.589l68.5,37.509-55.706,70.651-59.5-7.847L-4.27,153.2Z" transform="translate(4.27 -129.589)"/></clipPath><linearGradient id="l" x1="-2.229" y1="6.64" x2="-4.861" y2="7.102" gradientUnits="objectBoundingBox"><stop offset="0" stop-color="#bcbeff"/><stop offset="0.147" stop-color="#b5b7fc"/><stop offset="0.356" stop-color="#a2a6f5"/><stop offset="0.602" stop-color="#848ae8"/><stop offset="0.874" stop-color="#5a63d8"/><stop offset="0.892" stop-color="#5761d7"/></linearGradient><linearGradient id="m" x1="-2.264" y1="-6.926" x2="-4.29" y2="-7.45" gradientUnits="objectBoundingBox"><stop offset="0" stop-color="#e9e9fd"/><stop offset="0.36" stop-color="#d2d2f9"/><stop offset="0.706" stop-color="#c4c3f6"/><stop offset="1" stop-color="#c0bff6"/></linearGradient><linearGradient id="n" x1="9.101" y1="10.758" x2="10.308" y2="9.709" gradientUnits="objectBoundingBox"><stop offset="0" stop-color="#e9e9fd"/><stop offset="0.536" stop-color="#d0d0f8"/><stop offset="1" stop-color="#c0bff6"/></linearGradient></defs><path class="b" d="M21.745,0H243.6a21.745,21.745,0,0,1,21.745,21.745v415.32A21.745,21.745,0,0,1,243.6,458.809H21.744A21.744,21.744,0,0,1,0,437.064V21.745A21.745,21.745,0,0,1,21.745,0Z" transform="translate(0 0)"/><path class="c" d="M47.172,142.672a6.067,6.067,0,0,1-2.978-.686L20.268,128.173A2.211,2.211,0,0,1,19,126.3a2.963,2.963,0,0,1,1.737-2.373l22.985-13.271a7.582,7.582,0,0,1,6.816-.27L74.466,124.2a2.217,2.217,0,0,1,1.267,1.876A2.963,2.963,0,0,1,74,128.444L51.01,141.715A7.9,7.9,0,0,1,47.172,142.672Zm.39-32.441a7.337,7.337,0,0,0-3.569.892L21.008,124.394a2.461,2.461,0,0,0-1.469,1.9,1.7,1.7,0,0,0,1,1.406l23.926,13.815a6.983,6.983,0,0,0,6.276-.273l22.985-13.269a2.461,2.461,0,0,0,1.469-1.9,1.7,1.7,0,0,0-1-1.408L50.269,110.852A5.52,5.52,0,0,0,47.562,110.231Z" transform="translate(26.329 -3.602)"/><path class="c" d="M119.389,242.845a3.072,3.072,0,0,1-1.516-.355l-11.59-6.692a1.2,1.2,0,0,1-.683-1.027,1.569,1.569,0,0,1,.911-1.271l11.134-6.429a3.765,3.765,0,0,1,3.442-.131l11.592,6.692a1.2,1.2,0,0,1,.683,1.027,1.563,1.563,0,0,1-.911,1.27l-11.134,6.43A3.943,3.943,0,0,1,119.389,242.845Zm-1.246-.821a3.292,3.292,0,0,0,2.9-.132l11.135-6.43c.4-.232.641-.532.641-.8a.709.709,0,0,0-.413-.561L120.817,227.4a3.294,3.294,0,0,0-2.9.132l-11.135,6.429c-.4.234-.642.533-.642.8a.711.711,0,0,0,.414.562Z" transform="translate(73.684 37.278)"/><g transform="translate(41.151 48.75)"><g transform="translate(101.276 0)"><path class="d" d="M71.355,67.755l4.454-2.547v.015a1.277,1.277,0,0,1,1.259.115l73.108,42.274a4.768,4.768,0,0,1,1.988,3.8l-.12,179.527a1.736,1.736,0,0,1-.706,1.6l.012.007L146.9,295.1l-.18-9.25L80.985,247.837A4.77,4.77,0,0,1,79,244.031l.115-171.9c-.171.54-.3.933-.32.945C78.729,73.113,71.355,67.755,71.355,67.755Z" transform="translate(-70.556 -65.105)"/><path class="e" d="M136.733,99.724l-18.065,10.408-3.337-1.929,19.82-11.419A4.953,4.953,0,0,1,136.733,99.724Z" transform="translate(-55.175 -54.025)"/><path class="f" d="M72.753,252.041l73.107,42.274c1.1.636,1.992-.038,1.992-1.505l.121-179.527a4.768,4.768,0,0,0-1.988-3.8L72.877,67.2c-1.1-.636-1.991.036-1.992,1.5l-.121,179.527A4.771,4.771,0,0,0,72.753,252.041Z" transform="translate(-70.763 -64.455)"/><path class="b" d="M145.85,109.478,72.742,67.2a1.163,1.163,0,0,0-1.593.155,1.385,1.385,0,0,1,1.062.2l73.108,42.274a4.768,4.768,0,0,1,1.988,3.806l-.12,179.527a2.093,2.093,0,0,1-.4,1.348c.556-.15.929-.757.929-1.7l.121-179.527A4.768,4.768,0,0,0,145.85,109.478Z" transform="translate(-70.628 -64.454)"/><path class="g" d="M71.995,240.934l73.72,42.628.139-165.534L72.134,75.4Z" transform="translate(-70.332 -61.504)"/><path class="h" d="M93.864,85.291l13.944,8.09c.408.236.753.306.9-.077a1.271,1.271,0,0,0,.078-.47h0a2.362,2.362,0,0,0-.984-1.884L93.715,82.8c-.043-.024-.084-.074-.126-.062-.445.124-.518.211-.52.879l.063.189A1.48,1.48,0,0,0,93.864,85.291Z" transform="translate(-62.961 -58.938)"/><path class="i" d="M93.675,82.757a1.269,1.269,0,0,0-.078.468,2.358,2.358,0,0,0,.984,1.883l14.093,8.15a.943.943,0,0,0,.127.057.573.573,0,0,1-.907.277L93.8,85.443a2.358,2.358,0,0,1-.984-1.884C92.817,82.891,93.192,82.563,93.675,82.757Z" transform="translate(-63.049 -58.951)"/></g><path class="j" d="M120.7,142.034l-16.21,94.3L32.169,252.4l27.91,16.114h0l1.3.75,15.6-1.122,7.524,14.474,20.335,11.74,27.817-41.737Z" transform="translate(17.015 -38.199)"/><g class="k" transform="translate(108.245 70.891)"><g class="l" transform="translate(0)"><g transform="translate(-97.265)"><path class="g" d="M45.022,224.937l125.042-107.31L55.916,196.109Z" transform="translate(10.53 -117.627)"/><g transform="translate(0)"><path class="m" d="M184.458,117.627,48.522,183.53,3.865,157.747Z" transform="translate(-3.865 -117.627)"/><path class="n" d="M167.24,117.627,53.093,196.109,97.75,221.892Z" transform="translate(13.353 -117.627)"/><path class="o" d="M58.739,196.109l114.147-78.482L36.95,183.53l10.894,41.407Z" transform="translate(7.707 -117.627)"/></g><path class="b" d="M35.478,182.383,173.4,117.627,37.465,183.53Z" transform="translate(7.192 -117.627)"/><path class="b" d="M53.093,196.109,167.24,117.627,54.878,197.14Z" transform="translate(13.353 -117.627)"/></g></g></g><g transform="translate(0 87.037)"><g class="p"><g transform="translate(10.98 -16.146)"><path class="g" d="M45.022,224.937l125.042-107.31L55.916,196.109Z" transform="translate(10.53 -117.627)"/><path class="m" d="M184.458,117.627,48.522,183.53,3.865,157.747Z" transform="translate(-3.865 -117.627)"/><path class="n" d="M167.24,117.627,53.093,196.109,97.75,221.892Z" transform="translate(13.353 -117.627)"/><path class="b" d="M164.126,119.767l-66.714,100.1L54.539,195.115l-1.447.995L97.75,221.892l69.49-104.265Z" transform="translate(13.353 -117.627)"/><path class="o" d="M58.739,196.109l114.147-78.482L36.95,183.53l10.894,41.407Z" transform="translate(7.707 -117.627)"/><path class="b" d="M35.478,182.383,173.4,117.627,37.465,183.53Z" transform="translate(7.192 -117.627)"/><path class="b" d="M53.093,196.109,167.24,117.627,54.878,197.14Z" transform="translate(13.353 -117.627)"/></g></g></g></g><g transform="translate(46.657 235.856)"><path class="j" d="M38.253,249.571l-17.94-10.358,17.94-10.357,17.94,10.358Z" transform="translate(-20.313 -197.783)"/><path class="q" d="M38.253,244.581l-17.94-10.358V213.508l17.94,10.358Z" transform="translate(-20.313 -203.15)"/><path class="r" d="M51.544,234.223,33.6,244.581V223.866l17.94-10.358Z" transform="translate(-15.664 -203.15)"/><path class="s" d="M38.253,226.55l-17.94-10.358,17.94-10.358,17.94,10.358Z" transform="translate(-20.313 -205.834)"/><path class="b" d="M38.253,223.205,20.97,213.227l-.657.379,17.94,10.358,17.94-10.357-.657-.379Z" transform="translate(-20.313 -203.249)"/></g><text class="t" transform="translate(20.755 368.778)"><tspan x="36.248" y="20">To generate eye-</tspan><tspan x="35.813" y="44">catching branded </tspan><tspan x="9.935" y="68">content at scale, speed </tspan></text></svg>