<svg xmlns="http://www.w3.org/2000/svg" width="471.444" height="324.868" viewBox="0 0 471.444 324.868">
  <g id="Group_2796" data-name="Group 2796" transform="translate(-785.067 -195.84)">
    <g id="planet-earth" transform="translate(968.106 195.84)">
      <path id="Path_1583" data-name="Path 1583" d="M85.34,14.642a49.991,49.991,0,1,0-70.7,70.7,49.991,49.991,0,1,0,70.7-70.7Zm10.4,25.15L82.558,36.1a1.565,1.565,0,0,0-1.949,1.852l1.072,4.755a4.9,4.9,0,0,0,6.126,3.64V48.72a3.458,3.458,0,0,1-1.394,2.768L78.43,57.4,71.39,43.817a1.566,1.566,0,1,0-2.78,1.441l7.136,13.767a8.241,8.241,0,0,0,7.885,4.431L84,63.431,83.47,66.32l-9.544,8.993a1.564,1.564,0,0,0-.382.563L66.464,93.771a7.618,7.618,0,0,1-8.729-5.435,16.6,16.6,0,0,1-.752-3.527V77.265a1.565,1.565,0,0,0-1-1.461l-1.664-.64a13.482,13.482,0,0,1-5.641-4.106l-2.894-3.583a1.565,1.565,0,0,0-1.493-.558L32.7,68.986A5.115,5.115,0,0,1,27.56,66.8l-1.215-1.81a10.12,10.12,0,0,1-.58-10.3l2.655-5.119a1.565,1.565,0,0,0,.176-.756l-.043-1.934A3.426,3.426,0,0,1,31.4,43.41l10.37-1.831A6.757,6.757,0,0,1,46.69,42.6l5.987,3.962a1.565,1.565,0,0,0,1.361.179l9.809-3.279a1.565,1.565,0,0,0,.553-.323l1.419-1.282a6.071,6.071,0,0,0-.037-9.042,1.566,1.566,0,0,0-1.485-.331l-7.779,2.307L51.7,30.382a3.235,3.235,0,0,0-5.416,2.235c0,.01,0,.019,0,.029l-1.537-1.363a1.565,1.565,0,0,0-.279-.2,6.561,6.561,0,0,0-7.661.931L34.363,34.28a1.562,1.562,0,0,0-.31.4L31.645,39.1l-3-.833a1.773,1.773,0,0,1-1.3-1.615l-.12-2.231a1.774,1.774,0,0,1,1.584-1.859l2.971-.316a1.566,1.566,0,0,0,1.4-1.557V26.777l6.017-4.541a6.54,6.54,0,0,0,1.745-1.98L43,16.677a1.566,1.566,0,0,0-1.66-2.314L33.991,15.8v-.386a5.091,5.091,0,0,1,1.9-3.981l9.621-7.76L51.908,7.36a3.235,3.235,0,0,0,4.451-1.246l1.3-2.36A46.926,46.926,0,0,1,95.743,39.792ZM49.875,36.356l-.451-3.649a.11.11,0,0,1,.049-.034.087.087,0,0,1,.11.02L55.057,37.7a1.566,1.566,0,0,0,1.5.346l7.67-2.275a2.946,2.946,0,0,1-.51,3.763L62.543,40.6l-8.775,2.934-5.35-3.541a9.87,9.87,0,0,0-5.46-1.649,9.984,9.984,0,0,0-1.736.153l-6.285,1.11,1.744-3.2,2.252-2.09a3.436,3.436,0,0,1,3.874-.56l4.476,3.968a1.565,1.565,0,0,0,2.592-1.363Zm.982-33.214q1.74.031,3.458.188l-.7,1.277a.1.1,0,0,1-.144.04Zm-34,79.985a46.881,46.881,0,0,1,22.992-78.9L33.929,9a8.209,8.209,0,0,0-3.069,6.418v2.289a1.566,1.566,0,0,0,1.867,1.536l5.853-1.149-.347.605a3.427,3.427,0,0,1-.914,1.037l-6.639,5.01A1.566,1.566,0,0,0,30.057,26v3.289l-1.571.167a4.9,4.9,0,0,0-4.38,5.14l.12,2.231a4.9,4.9,0,0,0,3.584,4.464l.416.116a6.539,6.539,0,0,0-2.8,5.545l.034,1.534-2.471,4.764a13.25,13.25,0,0,0,.76,13.49l1.215,1.81a8.247,8.247,0,0,0,8.295,3.522l10.673-1.905,2.312,2.863a16.616,16.616,0,0,0,6.952,5.061l.66.254v6.468a17.5,17.5,0,0,0,.865,4.361A10.624,10.624,0,0,0,59.8,95.652c.078.044.158.082.237.123a47.286,47.286,0,0,1-10.05,1.076A46.554,46.554,0,0,1,16.856,83.126Zm66.271,0a46.92,46.92,0,0,1-12.659,9.038l5.861-14.811,9.665-9.107a1.567,1.567,0,0,0,.467-.86l.976-5.375a1.566,1.566,0,0,0-1.648-1.842l-2.371.163a5.108,5.108,0,0,1-2.834-.632L88.276,54a6.6,6.6,0,0,0,2.662-5.284V44.184A1.566,1.566,0,0,0,88.88,42.7l-1.857.615a1.774,1.774,0,0,1-2.288-1.294l-.495-2.2,12.127,3.4a47.551,47.551,0,0,1,.485,6.773A46.555,46.555,0,0,1,83.126,83.126Z" fill="#fcf4f4"/>
      <path id="Path_1584" data-name="Path 1584" d="M112.745,87.03l1.718,1.055-.939,4.226a1.565,1.565,0,1,0,3.056.679l1.181-5.315A1.565,1.565,0,0,0,117.053,86l-2.67-1.639a1.565,1.565,0,1,0-1.638,2.668Z" transform="translate(-88.621 -66.57)" fill="#fcf4f4"/>
      <path id="Path_1585" data-name="Path 1585" d="M278.232,131.539h4.638a1.567,1.567,0,0,0,.931-.307l2.6-1.922a1.566,1.566,0,0,0-1.862-2.517l-2.183,1.615h-4.122a1.565,1.565,0,1,0,0,3.131Z" transform="translate(-218.918 -100.085)" fill="#fcf4f4"/>
      <path id="Path_1586" data-name="Path 1586" d="M331.267,106.752a1.565,1.565,0,0,0,2.53-1.845l-4.275-5.862a1.565,1.565,0,0,0-2.53,1.845Z" transform="translate(-258.5 -77.862)" fill="#fcf4f4"/>
    </g>
    <g id="teamwork" transform="translate(1141.618 401.926)">
      <g id="Group_1689" data-name="Group 1689" transform="translate(14.972 79.849)">
        <g id="Group_1688" data-name="Group 1688" transform="translate(0)">
          <path id="Path_1587" data-name="Path 1587" d="M97.582,365.257A44.983,44.983,0,0,1,75.906,345.59a1.738,1.738,0,0,0-3.047,1.67,48.476,48.476,0,0,0,23.358,21.192,1.737,1.737,0,0,0,1.365-3.2Z" transform="translate(-72.645 -344.688)" fill="#fef4f4"/>
        </g>
      </g>
      <g id="Group_1691" data-name="Group 1691" transform="translate(73.933 79.85)">
        <g id="Group_1690" data-name="Group 1690">
          <path id="Path_1588" data-name="Path 1588" d="M352.253,344.91a1.737,1.737,0,0,0-2.359.688,44.987,44.987,0,0,1-21.671,19.664,1.737,1.737,0,1,0,1.365,3.2,48.477,48.477,0,0,0,23.353-21.189A1.738,1.738,0,0,0,352.253,344.91Z" transform="translate(-327.169 -344.696)" fill="#fef4f4"/>
        </g>
      </g>
      <g id="Group_1693" data-name="Group 1693" transform="translate(70.57 13.571)">
        <g id="Group_1692" data-name="Group 1692">
          <path id="Path_1589" data-name="Path 1589" d="M340.671,79.271a48.3,48.3,0,0,0-25.729-20.6,1.737,1.737,0,0,0-1.112,3.292A44.822,44.822,0,0,1,337.7,81.08a1.737,1.737,0,0,0,2.967-1.809Z" transform="translate(-312.649 -58.583)" fill="#fef4f4"/>
        </g>
      </g>
      <g id="Group_1695" data-name="Group 1695" transform="translate(16.047 13.569)">
        <g id="Group_1694" data-name="Group 1694" transform="translate(0)">
          <path id="Path_1590" data-name="Path 1590" d="M105.477,59.755a1.738,1.738,0,0,0-2.2-1.09,48.3,48.3,0,0,0-25.735,20.6,1.737,1.737,0,1,0,2.967,1.809,44.823,44.823,0,0,1,23.879-19.115A1.738,1.738,0,0,0,105.477,59.755Z" transform="translate(-77.286 -58.573)" fill="#fef4f4"/>
        </g>
      </g>
      <g id="Group_1697" data-name="Group 1697" transform="translate(44.568)">
        <g id="Group_1696" data-name="Group 1696">
          <path id="Path_1591" data-name="Path 1591" d="M223.148,23.3,218.8,21.123a.119.119,0,0,1-.066-.107V18.385a9.157,9.157,0,0,0,3.714-7.363V7.308A7.316,7.316,0,0,0,215.139,0h-3.714a7.317,7.317,0,0,0-7.308,7.308v3.714a9.157,9.157,0,0,0,3.714,7.363v2.632a.119.119,0,0,1-.066.107L203.417,23.3a5.421,5.421,0,0,0-3.014,4.876v5.133a1.737,1.737,0,0,0,3.475,0V28.173a1.965,1.965,0,0,1,1.093-1.768l3.017-1.508,2.753,2.753a3.595,3.595,0,0,0,5.083,0l2.753-2.753,3.017,1.509a1.966,1.966,0,0,1,1.092,1.768v5.133a1.737,1.737,0,1,0,3.475,0V28.174A5.423,5.423,0,0,0,223.148,23.3Zm-9.782,1.9a.119.119,0,0,1-.169,0l-2.375-2.375a3.588,3.588,0,0,0,.483-1.8V19.971a9.107,9.107,0,0,0,3.953,0v1.046a3.588,3.588,0,0,0,.483,1.8Zm-.084-8.481a5.7,5.7,0,0,1-5.69-5.691V7.308h0a3.838,3.838,0,0,1,3.834-3.833h3.714a3.838,3.838,0,0,1,3.833,3.833v3.714A5.7,5.7,0,0,1,213.283,16.713Z" transform="translate(-200.403)" fill="#fef4f4"/>
        </g>
      </g>
      <g id="Group_1699" data-name="Group 1699" transform="translate(44.567 83.564)">
        <g id="Group_1698" data-name="Group 1698">
          <path id="Path_1592" data-name="Path 1592" d="M223.146,384.023l-4.348-2.174a.119.119,0,0,1-.066-.107v-2.632a9.157,9.157,0,0,0,3.714-7.363v-3.714a7.316,7.316,0,0,0-7.308-7.308h-3.714a7.317,7.317,0,0,0-7.308,7.308v3.714a9.157,9.157,0,0,0,3.714,7.363v2.632a.119.119,0,0,1-.066.107l-4.348,2.174A5.421,5.421,0,0,0,200.4,388.9v5.133a1.737,1.737,0,1,0,3.475,0V388.9a1.965,1.965,0,0,1,1.093-1.768l3.017-1.508,2.753,2.753a3.594,3.594,0,0,0,5.083,0l2.753-2.753,3.017,1.508a1.965,1.965,0,0,1,1.092,1.768v5.133a1.737,1.737,0,1,0,3.475,0V388.9A5.421,5.421,0,0,0,223.146,384.023Zm-9.782,1.9a.119.119,0,0,1-.169,0l-2.375-2.375a3.588,3.588,0,0,0,.483-1.8V380.7a9.107,9.107,0,0,0,3.953,0v1.046a3.588,3.588,0,0,0,.483,1.8Zm-.084-8.481a5.7,5.7,0,0,1-5.69-5.69v-3.714h0a3.838,3.838,0,0,1,3.834-3.833h3.714a3.838,3.838,0,0,1,3.833,3.833v3.714A5.7,5.7,0,0,1,213.281,377.438Z" transform="translate(-200.401 -360.726)" fill="#fef4f4"/>
        </g>
      </g>
      <g id="Group_1701" data-name="Group 1701" transform="translate(0 40.853)">
        <g id="Group_1700" data-name="Group 1700" transform="translate(0)">
          <path id="Path_1593" data-name="Path 1593" d="M30.76,199.652l-4.348-2.174a.119.119,0,0,1-.066-.107V194.74a9.157,9.157,0,0,0,3.714-7.363v-3.714a7.317,7.317,0,0,0-7.308-7.308H19.037a7.317,7.317,0,0,0-7.308,7.308v3.714a9.157,9.157,0,0,0,3.714,7.363v2.632a.118.118,0,0,1-.066.107l-4.348,2.174a5.422,5.422,0,0,0-3.013,4.876v5.133a1.737,1.737,0,1,0,3.475,0v-5.133a1.966,1.966,0,0,1,1.093-1.768l3.017-1.508,2.753,2.753a3.6,3.6,0,0,0,5.083,0l2.753-2.753,3.017,1.508a1.966,1.966,0,0,1,1.093,1.768v5.133a1.737,1.737,0,0,0,3.475,0v-5.133A5.423,5.423,0,0,0,30.76,199.652Zm-9.781,1.9a.119.119,0,0,1-.169,0l-2.375-2.375a3.589,3.589,0,0,0,.483-1.8v-1.046a9.107,9.107,0,0,0,3.953,0v1.046a3.588,3.588,0,0,0,.483,1.8Zm-.085-8.481a5.7,5.7,0,0,1-5.69-5.69v-3.714h0a3.838,3.838,0,0,1,3.833-3.834h3.714a3.838,3.838,0,0,1,3.834,3.834v3.714A5.7,5.7,0,0,1,20.895,193.067Z" transform="translate(-8.015 -176.355)" fill="#fef4f4"/>
        </g>
      </g>
      <g id="Group_1703" data-name="Group 1703" transform="translate(89.135 40.853)">
        <g id="Group_1702" data-name="Group 1702">
          <path id="Path_1594" data-name="Path 1594" d="M415.534,199.652l-4.348-2.174a.119.119,0,0,1-.066-.107V194.74a9.157,9.157,0,0,0,3.714-7.363v-3.714a7.317,7.317,0,0,0-7.308-7.308h-3.714a7.317,7.317,0,0,0-7.308,7.308v3.714a9.157,9.157,0,0,0,3.714,7.363v2.632a.118.118,0,0,1-.066.107l-4.348,2.174a5.422,5.422,0,0,0-3.013,4.876v5.133a1.737,1.737,0,1,0,3.475,0v-5.133a1.966,1.966,0,0,1,1.093-1.768l3.017-1.508,2.753,2.753a3.6,3.6,0,0,0,5.083,0l2.753-2.753,3.017,1.508a1.966,1.966,0,0,1,1.093,1.768v5.133a1.737,1.737,0,1,0,3.475,0v-5.133A5.422,5.422,0,0,0,415.534,199.652Zm-9.781,1.9a.12.12,0,0,1-.169,0l-2.375-2.375a3.588,3.588,0,0,0,.483-1.8v-1.046a9.107,9.107,0,0,0,3.953,0v1.046a3.592,3.592,0,0,0,.483,1.8Zm-.085-8.481a5.7,5.7,0,0,1-5.69-5.69v-3.714h0a3.838,3.838,0,0,1,3.834-3.834h3.714a3.838,3.838,0,0,1,3.833,3.834v3.714A5.7,5.7,0,0,1,405.669,193.067Z" transform="translate(-392.789 -176.355)" fill="#fef4f4"/>
        </g>
      </g>
    </g>
    <g id="target" transform="translate(785.067 430.365)">
      <path id="Path_1595" data-name="Path 1595" d="M89.566,226.181a8.309,8.309,0,0,0-5.125-2.147,7.336,7.336,0,0,0-5.637,2.146L68.6,236.272a6.769,6.769,0,0,0-.69-.985,6.612,6.612,0,0,0-5.166-2.31H48.469a29.286,29.286,0,0,1-7.806-1.037,19.207,19.207,0,0,0-17.917,3.791,26.06,26.06,0,0,0-4.666,5.008l-2.56-2.484a1.82,1.82,0,0,0-1.263-.512h-.012a1.824,1.824,0,0,0-1.294.556L.505,251.218a1.806,1.806,0,0,0,.055,2.559L21.61,273.82a1.8,1.8,0,0,0,2.537-.047l12.329-12.649a1.814,1.814,0,0,0-.036-2.568l-1.074-1.041,2.457-.276a39.049,39.049,0,0,1,4.495-.26H64.044a16.309,16.309,0,0,0,8.912-2.295l.059-.039a12.026,12.026,0,0,0,2.3-2.09l14.64-17.223c2.506-2.947,2.349-6.625-.391-9.151Zm-66.758,43.8L4.364,252.415,14.3,242.1l18.336,17.794Zm64.4-36.983-14.64,17.224a8.434,8.434,0,0,1-1.584,1.444,12.833,12.833,0,0,1-6.938,1.708H42.319a42.609,42.609,0,0,0-4.9.284l-5.4.606L20.7,243.284a22.506,22.506,0,0,1,4.324-4.758A15.533,15.533,0,0,1,39.7,235.418a32.89,32.89,0,0,0,8.769,1.168H62.748A3.26,3.26,0,0,1,66,240.12a3.908,3.908,0,0,1-.845,2.5,3.066,3.066,0,0,1-2.461,1.032H50.262a1.8,1.8,0,0,0,0,3.609h12.43A6.692,6.692,0,0,0,67.9,244.96a7.411,7.411,0,0,0,1.7-4.6l11.747-11.624a4.224,4.224,0,0,1,5.77.1c.759.7,1.779,2.17.087,4.16Zm0,0" transform="translate(-0.001 -183.975)" fill="#fef2f2"/>
      <path id="Path_1596" data-name="Path 1596" d="M232.8,334.614a1.8,1.8,0,1,0-3.513.824l.017.073a1.806,1.806,0,0,0,1.755,1.393,1.826,1.826,0,0,0,.414-.048,1.8,1.8,0,0,0,1.345-2.169Zm0,0" transform="translate(-188.167 -273.609)" fill="#fef2f2"/>
      <path id="Path_1597" data-name="Path 1597" d="M48.06,38.572H65.644a4.342,4.342,0,0,0,2.564-.836,4.342,4.342,0,0,0,2.564.836H88.356a4.342,4.342,0,0,0,2.564-.836,4.342,4.342,0,0,0,2.564.836h17.583a4.374,4.374,0,0,0,4.369-4.369V26a9.462,9.462,0,0,0-5.146-8.46,10.409,10.409,0,1,0-16.028,0,9.453,9.453,0,0,0-3.342,2.865,9.435,9.435,0,0,0-3.343-2.865,10.409,10.409,0,1,0-16.028,0,9.435,9.435,0,0,0-3.343,2.865,9.444,9.444,0,0,0-3.343-2.866,10.408,10.408,0,1,0-16.028,0A9.463,9.463,0,0,0,43.691,26v8.2a4.375,4.375,0,0,0,4.369,4.369ZM102.277,4.109a6.8,6.8,0,1,1-6.8,6.8A6.807,6.807,0,0,1,102.277,4.109ZM97.589,20.2a10.372,10.372,0,0,0,9.375,0A5.863,5.863,0,0,1,111.828,26v8.2a.761.761,0,0,1-.76.76H93.485a.761.761,0,0,1-.759-.76V26A5.863,5.863,0,0,1,97.589,20.2ZM79.564,4.109a6.8,6.8,0,1,1-6.8,6.8A6.807,6.807,0,0,1,79.564,4.109ZM74.877,20.2a10.372,10.372,0,0,0,9.375,0A5.864,5.864,0,0,1,89.116,26v8.2a.761.761,0,0,1-.76.76H70.773a.761.761,0,0,1-.76-.76V26A5.864,5.864,0,0,1,74.877,20.2ZM56.852,4.109a6.8,6.8,0,1,1-6.8,6.8A6.807,6.807,0,0,1,56.852,4.109ZM47.3,26A5.864,5.864,0,0,1,52.164,20.2a10.372,10.372,0,0,0,9.375,0A5.863,5.863,0,0,1,66.4,26v8.2a.761.761,0,0,1-.76.76H48.06a.761.761,0,0,1-.76-.76Zm0,0" transform="translate(-35.863 -0.5)" fill="#fef2f2"/>
    </g>
    <line id="Line_37" data-name="Line 37" x2="94.578" y2="94.578" transform="translate(1056.355 315.378)" fill="none" stroke="#fff6f6" stroke-linecap="round" stroke-width="5"/>
    <line id="Line_41" data-name="Line 41" x2="111.644" y2="111.644" transform="translate(1068.444 284.8)" fill="none" stroke="#fff6f6" stroke-linecap="round" stroke-width="5"/>
    <line id="Line_38" data-name="Line 38" x1="243.911" transform="translate(884.267 491.733)" fill="none" stroke="#fff6f6" stroke-linecap="round" stroke-width="5"/>
    <line id="Line_42" data-name="Line 42" x1="219.733" transform="translate(894.222 463.289)" fill="none" stroke="#fff6f6" stroke-linecap="round" stroke-width="5"/>
    <line id="Line_39" data-name="Line 39" x1="134.4" y2="134.4" transform="translate(823.822 279.111)" fill="none" stroke="#fff6f6" stroke-linecap="round" stroke-width="5"/>
    <line id="Line_40" data-name="Line 40" x1="116.622" y2="116.622" transform="translate(857.956 306.133)" fill="none" stroke="#fff6f6" stroke-linecap="round" stroke-width="5"/>
  </g>
</svg>
