<svg id="Group_1755" data-name="Group 1755" xmlns="http://www.w3.org/2000/svg" xmlns:xlink="http://www.w3.org/1999/xlink" width="64.743" height="64.758" viewBox="0 0 64.743 64.758">
  <defs>
    <linearGradient id="linear-gradient" x1="0.5" y1="-0.549" x2="0.5" y2="1.095" gradientUnits="objectBoundingBox">
      <stop offset="0.317" stop-color="#20a9e5"/>
      <stop offset="0.672" stop-color="#1686c3"/>
    </linearGradient>
  </defs>
  <path id="Path_1624" data-name="Path 1624" d="M77.564,39.033A32.371,32.371,0,1,1,45.2,6.654,32.4,32.4,0,0,1,77.564,39.033Z" transform="translate(-12.821 -6.654)" fill="url(#linear-gradient)"/>
  <g id="Group_1754" data-name="Group 1754" transform="translate(12.776 15.481)">
    <g id="Group_1753" data-name="Group 1753">
      <path id="Path_1625" data-name="Path 1625" d="M13.648,37.731A18.6,18.6,0,0,0,22.531,36.2a15.607,15.607,0,0,0,3.553-2.132,8.787,8.787,0,0,1-3.677-.911,8.392,8.392,0,0,1-4.063-4.542c-.185-.463-.185-.463.324-.433a6.717,6.717,0,0,0,3.121-.2,8.771,8.771,0,0,1-2.008-.772,8.571,8.571,0,0,1-4.6-7.245c-.031-.371.077-.417.417-.247a8.89,8.89,0,0,0,3.337.911c-.541-.494-1-.9-1.437-1.313a8.764,8.764,0,0,1-1.344-9.655c.216-.4.294-.4.587-.077a24.108,24.108,0,0,0,14.846,8.28c.6.108,1.267.124,1.885.247.417.062.463-.139.4-.448a8.511,8.511,0,0,1,14.243-7.647.968.968,0,0,0,.942.216,16.279,16.279,0,0,0,4.48-1.746,1.29,1.29,0,0,0,.371-.232,8.454,8.454,0,0,1-3.584,4.7,17.189,17.189,0,0,0,4.573-1.2c.031.216-.124.324-.2.479a16.7,16.7,0,0,1-3.538,3.615.75.75,0,0,0-.309.7,24.744,24.744,0,0,1-5.87,16.622,22.944,22.944,0,0,1-14.212,7.956,24.126,24.126,0,0,1-16.931-3.29Z" transform="translate(-13.648 -7.656)" fill="#fff" fill-rule="evenodd"/>
    </g>
  </g>
</svg>
