<svg xmlns="http://www.w3.org/2000/svg" width="45.067" height="45.067" viewBox="0 0 45.067 45.067">
  <g id="Group_3024" data-name="Group 3024" transform="translate(-522 -1001)">
    <g id="First" transform="translate(522 1001)">
      <g id="Ellipse_14" data-name="Ellipse 14" transform="translate(0 0)" fill="#fff" stroke="#707070" stroke-width="3" opacity="0.652">
        <circle cx="22.534" cy="22.534" r="22.534" stroke="none"/>
        <circle cx="22.534" cy="22.534" r="21.034" fill="none"/>
      </g>
    </g>
    <g id="weibo-logo" transform="translate(533 1011.268)">
      <path id="Path_2190" data-name="Path 2190" d="M17.944,13.223c-.916-.387-.916-.387-.685-1.343.376-1.56-.333-2.574-1.939-2.568a12.792,12.792,0,0,0-3.989.913,19.16,19.16,0,0,0,.208-1.91A1.614,1.614,0,0,0,9.733,6.549a5.569,5.569,0,0,0-2,.465A14.345,14.345,0,0,0,.44,14.434,6.034,6.034,0,0,0,0,16.954a5.216,5.216,0,0,0,2.821,4.293A13.1,13.1,0,0,0,13.57,22.659a10.11,10.11,0,0,0,5.762-3.773C21.009,16.592,20.436,14.277,17.944,13.223Zm-2.32,5.239A6.215,6.215,0,0,1,12.9,20.6a9.759,9.759,0,0,1-7.506.3,6.575,6.575,0,0,1-1.6-.894,3.353,3.353,0,0,1-.487-5.215,8.226,8.226,0,0,1,5.124-2.476c.473-.071.956-.083,1.369-.116,2.089.066,4.007.446,5.494,1.962A3.2,3.2,0,0,1,15.624,18.461ZM23.74,9.6c.024.658-.252,1.045-.763,1.083-.529.037-.88-.351-.91-1.013a5.439,5.439,0,0,0-5.274-5.27c-.7-.039-1.063-.348-1.035-.884s.436-.824,1.113-.787A7.142,7.142,0,0,1,23.74,9.6Zm-3.369-.06a.833.833,0,0,1-.542,1.146A.825.825,0,0,1,18.766,10,3.1,3.1,0,0,0,16.4,7.67a.791.791,0,0,1-.675-.918c.054-.45.341-.713.967-.722a8.022,8.022,0,0,1,.847.264A4.687,4.687,0,0,1,20.371,9.545Zm-9.914,8.9a3.31,3.31,0,0,1-3.7.758,2.144,2.144,0,0,1-.56-3.675,3.58,3.58,0,0,1,2.276-.891,10.178,10.178,0,0,1,1.11.265A2.132,2.132,0,0,1,10.456,18.449Z" transform="translate(0 0)" fill="#a1a1a1"/>
    </g>
  </g>
</svg>
