<svg xmlns="http://www.w3.org/2000/svg" width="45.067" height="45.067" viewBox="0 0 45.067 45.067">
  <g id="Group_3023" data-name="Group 3023" transform="translate(-858 -1008)">
    <g id="First" transform="translate(858 1008)">
      <g id="Ellipse_14" data-name="Ellipse 14" transform="translate(0 0)" fill="#fff" stroke="#707070" stroke-width="3" opacity="0.652">
        <circle cx="22.534" cy="22.534" r="22.534" stroke="none"/>
        <circle cx="22.534" cy="22.534" r="21.034" fill="none"/>
      </g>
    </g>
    <g id="Group_1753" data-name="Group 1753" transform="translate(869 1022)">
      <path id="Path_1625" data-name="Path 1625" d="M13.648,24.174a10.213,10.213,0,0,0,4.879-.84,8.572,8.572,0,0,0,1.951-1.171,4.826,4.826,0,0,1-2.019-.5,4.609,4.609,0,0,1-2.231-2.494c-.1-.255-.1-.255.178-.238a3.689,3.689,0,0,0,1.714-.11,4.817,4.817,0,0,1-1.1-.424,4.707,4.707,0,0,1-2.528-3.979c-.017-.2.042-.229.229-.136a4.883,4.883,0,0,0,1.833.5c-.3-.272-.551-.492-.789-.721a4.813,4.813,0,0,1-.738-5.3c.119-.221.161-.221.322-.042A13.241,13.241,0,0,0,23.5,13.263c.331.059.7.068,1.035.136.229.034.255-.076.221-.246a4.674,4.674,0,0,1,7.823-4.2.531.531,0,0,0,.518.119,8.941,8.941,0,0,0,2.461-.959.708.708,0,0,0,.2-.127,4.643,4.643,0,0,1-1.968,2.579A9.441,9.441,0,0,0,36.3,9.9c.017.119-.068.178-.11.263a9.174,9.174,0,0,1-1.943,1.985.412.412,0,0,0-.17.382,13.59,13.59,0,0,1-3.224,9.129,12.6,12.6,0,0,1-7.806,4.37,13.251,13.251,0,0,1-9.3-1.807Z" transform="translate(-13.648 -7.656)" fill="#a1a1a1" fill-rule="evenodd"/>
    </g>
  </g>
</svg>
