<svg xmlns="http://www.w3.org/2000/svg" width="64.28" height="64.28" viewBox="0 0 64.28 64.28">
  <g id="Group_3023" data-name="Group 3023" transform="translate(-582 -989)">
    <circle id="Ellipse_294" data-name="Ellipse 294" cx="32.14" cy="32.14" r="32.14" transform="translate(582 989)" fill="#ffe591"/>
    <path id="Path_2190" data-name="Path 2190" d="M26.957,18.492c-1.376-.581-1.376-.581-1.028-2.018.565-2.344-.5-3.867-2.913-3.858a19.218,19.218,0,0,0-5.992,1.372,28.784,28.784,0,0,0,.312-2.869,2.425,2.425,0,0,0-2.714-2.654,8.367,8.367,0,0,0-3,.7A21.55,21.55,0,0,0,.661,20.312,9.065,9.065,0,0,0,0,24.1c.091,2.952,1.874,4.973,4.238,6.45a19.673,19.673,0,0,0,16.144,2.12A15.188,15.188,0,0,0,29.043,27C31.562,23.553,30.7,20.076,26.957,18.492Zm-3.485,7.87a9.336,9.336,0,0,1-4.092,3.22,14.661,14.661,0,0,1-11.276.443,9.877,9.877,0,0,1-2.4-1.343,5.038,5.038,0,0,1-.732-7.834,12.358,12.358,0,0,1,7.7-3.72c.711-.107,1.436-.125,2.056-.175,3.138.1,6.02.67,8.253,2.948A4.807,4.807,0,0,1,23.472,26.362Zm12.192-13.3c.036.988-.378,1.571-1.147,1.627-.8.056-1.322-.527-1.368-1.521a8.171,8.171,0,0,0-7.923-7.917c-1.059-.058-1.6-.522-1.554-1.327s.654-1.238,1.672-1.183A10.729,10.729,0,0,1,35.664,13.057ZM30.6,12.967a1.252,1.252,0,0,1-.815,1.721,1.239,1.239,0,0,1-1.6-1.037,4.653,4.653,0,0,0-3.557-3.5,1.188,1.188,0,0,1-1.014-1.379c.082-.676.512-1.072,1.453-1.085a12.051,12.051,0,0,1,1.273.4A7.042,7.042,0,0,1,30.6,12.967ZM15.708,26.344a4.972,4.972,0,0,1-5.554,1.139,3.22,3.22,0,0,1-.841-5.521,5.378,5.378,0,0,1,3.419-1.339,15.29,15.29,0,0,1,1.667.4A3.2,3.2,0,0,1,15.708,26.344Z" transform="translate(596 1003.268)" fill="#f30606"/>
    <ellipse id="Ellipse_295" data-name="Ellipse 295" cx="2" cy="1.5" rx="2" ry="1.5" transform="matrix(0.914, -0.407, 0.407, 0.914, 604.563, 1027.943)" fill="#fff"/>
    <g id="Ellipse_296" data-name="Ellipse 296" transform="translate(609 1026)" fill="#fff" stroke="#fff" stroke-width="1">
      <circle cx="0.5" cy="0.5" r="0.5" stroke="none"/>
      <circle cx="0.5" cy="0.5" fill="none"/>
    </g>
  </g>
</svg>
